<svg id="Capa_1" enable-background="new 0 0 512 512" height="512" viewBox="0 0 512 512" width="512" xmlns="http://www.w3.org/2000/svg"><path d="m346.005 512c-3.568 0-7.094-1.272-9.884-3.714l-79.912-69.963-80.359 69.988c-4.433 3.862-10.714 4.775-16.065 2.341-5.351-2.436-8.786-7.772-8.786-13.652v-235.98c0-8.284 6.716-15 15-15h180.003c8.284 0 15 6.716 15 15v235.98c0 5.887-3.443 11.228-8.804 13.66-1.984.9-4.096 1.34-6.193 1.34z" fill="#28c1d1"/><path d="m346.002 246.02h-90.002v192.486l.209-.182 79.912 69.963c2.79 2.441 6.315 3.714 9.884 3.714 2.097 0 4.209-.44 6.193-1.34 5.361-2.432 8.804-7.773 8.804-13.66v-235.981c0-8.285-6.716-15-15-15z" fill="#008896"/><path d="m256 356.574c-5.359 0-10.311-2.859-12.99-7.5l-43.381-75.138h-84.465c-5.359 0-10.311-2.859-12.99-7.5-2.68-4.641-2.68-10.359 0-15l42.233-73.149-42.233-73.149c-2.68-4.641-2.68-10.359 0-15 2.679-4.641 7.631-7.5 12.99-7.5h84.465l43.381-75.138c2.679-4.641 7.631-7.5 12.99-7.5s10.311 2.859 12.99 7.5l43.381 75.138h84.465c5.359 0 10.311 2.859 12.99 7.5 2.68 4.641 2.68 10.359 0 15l-42.233 73.149 42.233 73.149c2.68 4.641 2.68 10.359 0 15-2.679 4.641-7.631 7.5-12.99 7.5h-84.465l-43.381 75.138c-2.679 4.641-7.631 7.5-12.99 7.5z" fill="#fff566"/><path d="m268.99 349.074 43.381-75.138h84.465c5.359 0 10.311-2.859 12.99-7.5 2.68-4.641 2.68-10.359 0-15l-42.233-73.149 42.233-73.149c2.68-4.641 2.68-10.359 0-15-2.679-4.641-7.631-7.5-12.99-7.5h-84.465l-43.381-75.138c-2.679-4.641-7.631-7.5-12.99-7.5v356.574c5.359 0 10.311-2.859 12.99-7.5z" fill="#ffcf2c"/><path d="m312.586 273.936h84.251c5.359 0 10.311-2.859 12.99-7.5 2.68-4.641 2.68-10.359 0-15l-42.233-73.149h-111.594z" fill="#ffb500"/><path d="m115.164 82.638c-5.359 0-10.311 2.859-12.99 7.5-2.68 4.641-2.68 10.359 0 15l42.233 73.149h111.593l-56.585-95.649z" fill="#ffb500"/><path d="m396.837 82.638h-84.251l-56.586 95.649h111.594l42.233-73.149c2.68-4.641 2.68-10.359 0-15-2.679-4.641-7.631-7.5-12.99-7.5z" fill="#ff9300"/><path d="m102.174 251.436c-2.68 4.641-2.68 10.359 0 15 2.679 4.641 7.631 7.5 12.99 7.5h84.251l56.585-95.649h-111.594z" fill="#ffcf2c"/><path d="m93.36 193.29c-3.95 0-7.81-1.6-10.61-4.391-2.79-2.8-4.39-6.67-4.39-10.609 0-3.95 1.6-7.82 4.39-10.61 2.8-2.79 6.66-4.39 10.61-4.39s7.82 1.6 10.61 4.39 4.39 6.66 4.39 10.61-1.6 7.81-4.39 10.609c-2.79 2.79-6.66 4.391-10.61 4.391z" fill="#ffb500"/><path d="m418.64 193.29c-3.95 0-7.81-1.6-10.61-4.391-2.79-2.8-4.39-6.67-4.39-10.609 0-3.95 1.6-7.82 4.39-10.61s6.66-4.39 10.61-4.39 7.81 1.6 10.61 4.39c2.79 2.79 4.39 6.66 4.39 10.61 0 3.94-1.6 7.81-4.39 10.609-2.8 2.79-6.66 4.391-10.61 4.391z" fill="#ff9300"/></svg>