<svg id="Capa_1" enable-background="new 0 0 512 512" height="512" viewBox="0 0 512 512" width="512" xmlns="http://www.w3.org/2000/svg"><g><g><g><g><g><g><path d="m254.648 272.015c-3.016 0-5.414-2.583-5.14-5.587 2.82-30.875 28.782-55.06 60.393-55.06s57.573 24.184 60.393 55.06c.274 3.003-2.124 5.587-5.14 5.587z" fill="#837bbf"/><path d="m348.644 225.345c-10.528 8.715-24.044 13.959-38.745 13.959s-28.206-5.244-38.735-13.959c10.508-8.726 24.003-13.98 38.735-13.98s28.237 5.255 38.745 13.98z" fill="#6e63b4"/></g><g><circle cx="309.901" cy="178.469" fill="#aca7d4" r="40.235"/><path d="m350.138 178.472c0 22.221-18.018 40.229-40.239 40.229-5.182 0-10.127-.979-14.68-2.761 14.958-5.862 25.559-20.428 25.559-37.468 0-17.039-10.601-31.606-25.559-37.478 4.553-1.782 9.498-2.761 14.68-2.761 22.221 0 40.239 18.018 40.239 40.239z" fill="#9790c9"/></g></g><g><g><path d="m146.846 272.015c-3.016 0-5.414-2.583-5.14-5.587 2.82-30.875 28.782-55.06 60.393-55.06s57.573 24.184 60.393 55.06c.274 3.003-2.124 5.587-5.14 5.587z" fill="#22c7db"/><path d="m240.836 225.345c-10.528 8.715-24.034 13.959-38.735 13.959s-28.217-5.244-38.745-13.959c10.508-8.726 24.014-13.98 38.745-13.98 14.732.001 28.227 5.255 38.735 13.98z" fill="#1fb2cc"/></g><g><circle cx="202.099" cy="178.469" fill="#a8e7ef" r="40.235"/><path d="m242.34 178.472c0 22.221-18.018 40.229-40.239 40.229-5.182 0-10.127-.979-14.68-2.761 14.958-5.862 25.559-20.428 25.559-37.468 0-17.039-10.601-31.606-25.559-37.478 4.553-1.782 9.498-2.761 14.68-2.761 22.221 0 40.239 18.018 40.239 40.239z" fill="#70d9e6"/></g></g></g><g><g><path d="m200.747 303.062c-3.016 0-5.414-2.583-5.14-5.587 2.82-30.875 28.782-55.06 60.393-55.06s57.573 24.184 60.393 55.06c.274 3.003-2.124 5.587-5.14 5.587z" fill="#1c96f9"/><path d="m294.735 256.395c-10.528 8.715-24.034 13.959-38.735 13.959s-28.206-5.244-38.735-13.959c10.508-8.726 24.003-13.98 38.735-13.98s28.227 5.254 38.735 13.98z" fill="#1785f8"/></g><g><circle cx="256" cy="209.515" fill="#64b9fc" r="40.235"/><path d="m296.239 209.511c0 22.221-18.018 40.239-40.239 40.239-5.182 0-10.127-.979-14.68-2.761 14.958-5.872 25.559-20.439 25.559-37.478s-10.601-31.606-25.559-37.468c4.553-1.782 9.498-2.761 14.68-2.761 22.221.001 40.239 18.008 40.239 40.229z" fill="#31a7fb"/></g></g></g></g><g><path d="m256 485.847c-1.334 0-2.668-.345-3.863-1.035l-192.362-111.061c-2.39-1.38-3.863-3.931-3.863-6.691v-222.12c0-2.761 1.473-5.311 3.863-6.691l192.362-111.06c2.39-1.38 5.336-1.38 7.726 0l192.362 111.06c2.39 1.38 3.863 3.931 3.863 6.691v222.12c0 2.761-1.473 5.311-3.863 6.691l-192.362 111.06c-1.195.691-2.529 1.036-3.863 1.036zm-184.636-123.247 184.636 106.599 184.636-106.6v-213.199l-184.636-106.599-184.636 106.599zm376.998 4.46h.01z" fill="#cbe5e7"/></g><g><g><path d="m256 112.248c-4.267 0-7.726-3.459-7.726-7.726v-39.858c0-4.268 3.459-7.726 7.726-7.726s7.726 3.459 7.726 7.726v39.858c0 4.268-3.459 7.726-7.726 7.726z" fill="#a9d3d8"/></g><circle cx="256" cy="33.879" fill="#bcea73" r="33.879"/><path d="m289.877 33.875c0 18.711-15.164 33.886-33.875 33.886-5.257 0-10.232-1.201-14.677-3.342 11.357-5.473 19.187-17.1 19.187-30.544s-7.831-25.06-19.187-30.533c4.446-2.141 9.421-3.342 14.677-3.342 18.712 0 33.875 15.164 33.875 33.875z" fill="#99d53b"/></g><g><g><path d="m256 455.051c-4.267 0-7.726-3.459-7.726-7.726v-39.847c0-4.268 3.459-7.726 7.726-7.726s7.726 3.459 7.726 7.726v39.847c0 4.268-3.459 7.726-7.726 7.726z" fill="#a9d3d8"/></g><circle cx="256" cy="478.119" fill="#bcea73" r="33.879"/><path d="m289.877 478.114c0 18.711-15.164 33.886-33.875 33.886-5.257 0-10.232-1.201-14.677-3.342 11.357-5.473 19.187-17.1 19.187-30.544s-7.831-25.06-19.187-30.533c4.445-2.142 9.42-3.342 14.677-3.342 18.712 0 33.875 15.164 33.875 33.875z" fill="#99d53b"/></g><g><g><g><path d="m387.149 187.958c-2.67 0-5.267-1.385-6.698-3.863-2.134-3.695-.868-8.422 2.827-10.555l34.499-19.923c3.695-2.133 8.421-.867 10.554 2.827 2.134 3.695.868 8.422-2.827 10.555l-34.499 19.923c-1.216.702-2.545 1.036-3.856 1.036z" fill="#a9d3d8"/></g><circle cx="448.362" cy="144.878" fill="#bcea73" r="33.879"/><path d="m482.239 144.874c0 18.711-15.164 33.886-33.875 33.886-5.257 0-10.232-1.201-14.677-3.342 11.357-5.473 19.187-17.1 19.187-30.544s-7.831-25.06-19.187-30.533c4.445-2.142 9.42-3.342 14.677-3.342 18.712 0 33.875 15.164 33.875 33.875z" fill="#99d53b"/></g><g><g><path d="m124.851 187.958c-1.311 0-2.64-.334-3.857-1.036l-34.499-19.923c-3.695-2.134-4.961-6.86-2.827-10.555s6.861-4.959 10.554-2.827l34.499 19.923c3.695 2.134 4.961 6.86 2.827 10.555-1.43 2.477-4.027 3.863-6.697 3.863z" fill="#a9d3d8"/></g><circle cx="63.638" cy="144.878" fill="#bcea73" r="33.879"/><path d="m97.515 144.874c0 18.711-15.164 33.886-33.875 33.886-5.257 0-10.232-1.201-14.677-3.342 11.357-5.473 19.187-17.1 19.187-30.544s-7.831-25.06-19.187-30.533c4.445-2.142 9.42-3.342 14.677-3.342 18.711 0 33.875 15.164 33.875 33.875z" fill="#99d53b"/></g></g><g><g><g><path d="m422.657 359.948c-1.311 0-2.64-.334-3.857-1.036l-35.481-20.492c-3.695-2.135-4.961-6.86-2.826-10.555 2.134-3.695 6.859-4.958 10.555-2.827l35.481 20.492c3.695 2.135 4.961 6.86 2.826 10.555-1.431 2.477-4.029 3.863-6.698 3.863z" fill="#a9d3d8"/></g><circle cx="448.362" cy="367.068" fill="#bcea73" r="33.879"/><path d="m482.239 367.063c0 18.711-15.164 33.886-33.875 33.886-5.257 0-10.232-1.201-14.677-3.342 11.357-5.473 19.187-17.1 19.187-30.544s-7.831-25.06-19.187-30.533c4.445-2.142 9.42-3.342 14.677-3.342 18.712 0 33.875 15.164 33.875 33.875z" fill="#99d53b"/></g><g><g><path d="m89.343 359.948c-2.67 0-5.267-1.385-6.698-3.863-2.134-3.695-.869-8.421 2.826-10.555l35.481-20.492c3.694-2.131 8.421-.868 10.555 2.827s.869 8.421-2.826 10.555l-35.481 20.491c-1.217.703-2.546 1.037-3.857 1.037z" fill="#a9d3d8"/></g><circle cx="63.638" cy="367.068" fill="#bcea73" r="33.879"/><path d="m97.515 367.063c0 18.711-15.164 33.886-33.875 33.886-5.257 0-10.232-1.201-14.677-3.342 11.357-5.473 19.187-17.1 19.187-30.544s-7.831-25.06-19.187-30.533c4.445-2.142 9.42-3.342 14.677-3.342 18.711 0 33.875 15.164 33.875 33.875z" fill="#99d53b"/></g></g><g><g><path d="m320.715 351.283h-22.993c-4.267 0-7.726-3.459-7.726-7.726s3.459-7.726 7.726-7.726h22.993c4.267 0 7.726 3.459 7.726 7.726s-3.459 7.726-7.726 7.726z" fill="#cbe5e7"/></g><g><path d="m320.715 381.543h-129.43c-4.267 0-7.726-3.459-7.726-7.726s3.459-7.726 7.726-7.726h129.43c4.267 0 7.726 3.459 7.726 7.726s-3.459 7.726-7.726 7.726z" fill="#cbe5e7"/></g><g><g id="XMLID_429_"><path d="m191.393 351.283c-.025 0-.049 0-.074 0l-.107-.001c-4.267-.04-7.693-3.532-7.653-7.799.04-4.268 3.543-7.678 7.799-7.654l.107.001c4.267.04 7.693 3.532 7.653 7.799-.04 4.242-3.492 7.654-7.725 7.654z" fill="#cbe5e7"/></g><g id="XMLID_428_"><path d="m218.156 351.283c-.025 0-.049 0-.074 0l-.107-.001c-4.267-.04-7.693-3.532-7.653-7.799.04-4.242 3.491-7.654 7.724-7.654h.074l.107.001c4.267.04 7.693 3.532 7.653 7.799-.039 4.242-3.491 7.654-7.724 7.654z" fill="#cbe5e7"/></g><g id="XMLID_113_"><path d="m244.919 351.283c-.025 0-.049 0-.074 0l-.107-.001c-4.267-.04-7.693-3.532-7.653-7.799.04-4.242 3.491-7.654 7.724-7.654h.074l.107.001c4.267.04 7.693 3.532 7.653 7.799-.04 4.242-3.492 7.654-7.724 7.654z" fill="#cbe5e7"/></g></g></g></g></svg>