<?xml version="1.0" standalone="no"?><!DOCTYPE svg PUBLIC "-//W3C//DTD SVG 1.1//EN" "http://www.w3.org/Graphics/SVG/1.1/DTD/svg11.dtd"><svg t="1747492319144" class="icon" viewBox="0 0 1024 1024" version="1.1" xmlns="http://www.w3.org/2000/svg" p-id="2312" width="24" height="24" xmlns:xlink="http://www.w3.org/1999/xlink"><path d="M276.30592 145.19296c10.50624-9.96352 24.56576-16.0256 38.99392-17.02912 18.0736-1.4336 36.64896 5.26336 49.50016 18.09408 11.12064 10.7008 17.9712 25.63072 19.03616 41.02144 1.40288 17.82784-5.05856 36.17792-17.58208 48.97792-6.56384 6.57408-13.18912 13.08672-19.68128 19.73248 159.25248 0.02048 318.50496 0 477.75744 0.01024 6.144 0.01024 12.3392-0.24576 18.41152 0.89088 17.84832 2.8672 34.10944 13.86496 43.60192 29.21472 9.4208 14.8992 12.0832 33.78176 7.43424 50.75968-5.39648 20.46976-21.7088 37.59104-41.87136 44.02176-7.55712 2.48832-15.5648 3.35872-23.5008 3.1232-160.60416-0.02048-321.20832-0.02048-481.81248 0 6.64576 6.85056 13.50656 13.5168 20.224 20.30592 10.20928 10.752 16.30208 25.2416 17.09056 40.0384 1.08544 17.48992-5.39648 35.34848-17.64352 47.91296-9.37984 9.91232-22.04672 16.64-35.51232 18.8416-16.97792 2.94912-35.09248-1.29024-48.88576-11.64288-4.38272-3.10272-7.97696-7.12704-11.776-10.88512-40.94976-40.92928-81.8688-81.88928-122.8288-122.79808-11.17184-10.7008-18.04288-25.66144-19.10784-41.0624-1.15712-15.39072 3.39968-31.1808 12.81024-43.42784 2.8672-3.93216 6.49216-7.20896 9.90208-10.6496 41.80992-41.82016 83.63008-83.63008 125.44-125.45024zM658.21696 531.24096c10.22976-10.62912 24.33024-17.408 39.00416-18.8928 15.81056-1.7408 32.23552 2.6624 44.96384 12.22656 4.72064 3.36896 8.5504 7.77216 12.68736 11.80672 36.68992 36.67968 73.3696 73.3696 110.06976 110.05952 5.5296 5.74464 11.50976 11.06944 16.73216 17.1008 11.59168 14.05952 16.55808 33.2288 13.44512 51.15904-2.2016 13.48608-8.91904 26.18368-18.86208 35.56352-42.17856 42.1376-84.33664 84.29568-126.47424 126.47424-9.3184 9.71776-21.87264 16.20992-35.15392 18.39104-16.44544 2.816-33.96608-1.0752-47.55456-10.79296-12.32896-8.67328-21.46304-21.80096-25.10848-36.44416-3.92192-15.24736-1.97632-31.8976 5.376-45.81376 7.08608-13.68064 19.92704-22.8352 30.04416-34.06848-161.98656-0.03072-323.97312 0-485.95968-0.01024-13.1584-0.06144-26.27584-4.32128-36.92544-12.07296-12.9024-9.28768-22.17984-23.52128-25.2416-39.14752-3.24608-15.872-0.26624-32.9728 8.40704-46.68416 9.29792-15.03232 25.09824-25.9072 42.51648-29.02016 6.08256-1.2288 12.30848-1.1264 18.47296-1.0752 159.58016-0.01024 319.16032 0.02048 478.74048-0.01024-6.62528-6.8608-13.48608-13.49632-20.18304-20.28544-10.96704-11.52-17.16224-27.3408-17.23392-43.2128-0.17408-16.70144 6.43072-33.40288 18.23744-45.25056z" fill="#FEDAA3" opacity=".4" p-id="2313"></path></svg>