<?xml version="1.0" standalone="no"?><!DOCTYPE svg PUBLIC "-//W3C//DTD SVG 1.1//EN" "http://www.w3.org/Graphics/SVG/1.1/DTD/svg11.dtd"><svg t="1747672269762" class="icon" viewBox="0 0 1024 1024" version="1.1" xmlns="http://www.w3.org/2000/svg" p-id="5608" width="40" height="40" xmlns:xlink="http://www.w3.org/1999/xlink"><path d="M467.584 153.568c11.136-13.312 26.208-25.952 44.544-25.632 21.76-0.064 38.016 16.992 50.272 33.056 23.968 32.576 42.336 68.768 62.368 103.808 10.112 17.472 18.944 35.776 30.944 52.096 8.48 11.616 22.08 17.824 35.712 21.056 41.6 10.4 83.744 18.528 125.152 29.792 21.6 6.304 44.192 12.64 61.952 27.136 15.04 12.096 20.992 33.408 15.552 51.776-6.752 23.456-22.208 42.976-36.832 62.048-23.584 29.536-48.576 57.92-72.992 86.784-121.568-122.208-243.872-243.584-365.376-365.824 15.072-26.048 29.408-52.8 48.704-76.096zM205.888 164.256c2.624 0.128 7.872 0.32 10.464 0.448l-0.384 2.816c9.92 0.928 18.688 6.432 25.568 13.376 39.424 39.488 78.976 78.848 118.304 118.4 45.024 42.464 87.808 87.232 131.904 130.656 85.856 85.856 171.616 171.776 257.568 257.536 38.24 40.672 78.656 79.232 117.76 119.04 9.824 10.336 22.208 19.36 27.2 33.216 3.552 14.464 1.76 31.328-9.568 42.016-14.528 17.792-44.448 19.168-60.544 2.816-18.272-17.984-36.544-36.032-54.336-54.496-0.384 20.736-4.704 44.672-22.784 57.536-17.76 12.8-41.184 8.64-60.704 2.72-38.56-12.352-74.752-30.816-111.648-47.296-17.632-7.616-34.624-17.312-53.44-21.792-14.848-3.392-29.472 2.72-42.848 8.544-38.368 17.12-76.128 35.648-115.072 51.456-19.008 7.296-38.656 14.752-59.328 14.784-15.68 0.16-31.328-7.968-39.296-21.632-10.368-17.44-10.88-38.528-11.072-58.304 1.088-50.336 7.936-100.288 11.968-150.432 1.088-14.304 1.504-29.568-5.568-42.56-8.832-16.032-21.952-29.024-33.472-43.072-26.752-31.968-55.168-62.752-78.816-97.184-12.576-18.88-24.896-42.016-17.568-65.248 6.176-20.832 26.688-32.352 45.664-39.648 36.256-13.536 74.496-20.544 112.032-29.536-35.2-34.912-70.08-70.144-105.248-105.12-7.616-7.424-14.272-16.544-15.264-27.424l-2.848 0.608 0.384-13.696 2.656 0.896c2.624-18.88 19.616-34.656 38.496-36.608l-0.16-2.816z" fill="#D9D9D9" p-id="5609"></path></svg>