<?xml version="1.0" standalone="no"?><!DOCTYPE svg PUBLIC "-//W3C//DTD SVG 1.1//EN" "http://www.w3.org/Graphics/SVG/1.1/DTD/svg11.dtd"><svg t="1747638120661" class="icon" viewBox="0 0 1024 1024" version="1.1" xmlns="http://www.w3.org/2000/svg" p-id="2719" width="100" height="100" xmlns:xlink="http://www.w3.org/1999/xlink"><path d="M469.11488 105.19552c11.80672-2.17088 23.6544-4.68992 35.72736-4.58752 40.87808-1.24928 82.14528 13.312 112.83456 40.43776 16.4352 13.96736 29.09184 31.77472 39.34208 50.62656 90.4704 156.76416 180.992 313.48736 271.45216 470.24128 5.85728 10.1888 12.02176 20.224 16.8448 30.96576 8.69376 20.0704 14.15168 41.87136 13.81376 63.83616 1.35168 42.73152-15.9232 85.34016-45.23008 116.26496-26.6752 28.55936-64.03072 46.73536-102.912 50.35008-10.50624 1.40288-21.11488 0.63488-31.67232 0.82944-187.70944 0.03072-375.40864-0.06144-563.10784 0.0512 0.3584-0.24576 1.0752-0.74752 1.4336-0.99328 195.45088-0.08192 390.95296 0.08192 586.43456-0.07168-195.97312-0.22528-391.96672 0.04096-587.91936-0.14336l-1.4848 0.57344c-12.8512-0.03072-25.71264-2.78528-38.06208-6.32832-37.16096-10.74176-69.7344-35.64544-90.66496-68.06528-26.3168-40.01792-33.98656-91.79136-19.67104-137.56416 4.63872-15.96416 12.56448-30.67904 21.02272-44.89216 90.22464-156.23168 180.39808-312.4736 270.60224-468.70528 7.18848-12.40064 13.9776-25.1392 23.1424-36.22912 20.5824-25.83552 49.23392-45.13792 80.96768-54.38464 2.85696-0.94208 5.7856-1.82272 8.84736-1.59744-0.58368-0.2048-1.16736-0.4096-1.7408-0.6144m27.51488 57.9584c-12.43136 1.60768-24.6272 5.29408-35.70688 11.19232-17.64352 9.17504-32.1024 23.9616-41.71776 41.29792-94.68928 164.0448-189.3888 328.0896-284.09856 492.12416-8.58112 14.81728-13.9264 31.81568-13.94688 49.01888-1.30048 34.82624 17.14176 69.41696 46.15168 88.53504 16.13824 10.72128 35.44064 16.90624 54.86592 16.68096 191.8464-0.02048 383.6928 0 575.5392-0.02048 34.03776-0.03072 66.73408-19.6096 84.2752-48.54784 13.75232-22.10816 18.98496-49.55136 13.3632-75.03872-2.63168-13.07648-8.3456-25.30304-15.33952-36.57728-94.28992-163.35872-188.60032-326.68672-282.89024-490.02496-4.15744-6.52288-8.63232-12.92288-14.24384-18.2784-21.62688-23.22432-54.95808-34.32448-86.25152-30.3616z" p-id="2720" fill="#D9D9D9"></path><path d="M478.48448 305.09056c0.06144-15.49312 13.96736-29.37856 29.46048-29.39904 10.56768-0.80896 21.28896 4.70016 27.04384 13.54752 5.24288 7.59808 5.92896 17.23392 5.77536 26.19392 0 104.41728-0.01024 208.8448 0 313.27232 0.1024 3.33824 0.0512 6.67648-0.6144 9.97376-1.10592 13.78304-12.38016 25.91744-26.13248 27.76064-17.47968 3.328-35.7888-11.59168-35.5328-29.51168-0.01024-110.61248-0.02048-221.22496 0-331.83744zM502.53824 718.66368c7.64928-1.21856 15.872-0.67584 22.66112 3.36896 8.45824 4.78208 14.67392 13.63968 15.70816 23.36768 2.06848 13.69088-6.21568 28.08832-19.10784 33.1776-10.48576 4.38272-23.35744 2.6624-32.08192-4.72064-12.51328-9.728-15.13472-29.42976-5.96992-42.24 4.1984-6.656 11.33568-10.89536 18.7904-12.9536z" p-id="2721" fill="#D9D9D9"></path></svg>