<?xml version="1.0"?>
<svg xmlns="http://www.w3.org/2000/svg" viewBox="0 0 512 512" width="512" height="512"><g id="Thinking_Face" data-name="Thinking Face"><g id="Glyph"><circle cx="328" cy="140" r="8" style="fill:#231f20"/><circle cx="168" cy="120" r="8" style="fill:#231f20"/><path d="M445.342,78.636C400.262,27.927,338.7,0,272,0,199.668,0,132.9,19.218,83.991,54.113,29.044,93.317,0,149.3,0,216c0,34.291,8.787,71.272,24.831,107.308a131.61,131.61,0,0,1,8.818-10.928l41.21-45.79A32.035,32.035,0,0,1,98.63,256h.03a31.98,31.98,0,0,1,28.59,46.29l-.141.27L109.43,331.92v-.01a7.872,7.872,0,0,0-1.14,4.06,8.215,8.215,0,0,0,2.279,5.61A7.774,7.774,0,0,0,116.31,344H253.14a26.948,26.948,0,0,1,19.04,8.02,27.836,27.836,0,0,1,8.34,18.81c0,.34.01.67.01.91a29.108,29.108,0,0,1-7.62,19.45A26.25,26.25,0,0,1,253.64,400H168.894a8.19,8.19,0,0,0-8.265,7.449A8.01,8.01,0,0,0,168.61,416h36.34v3.1A13.024,13.024,0,0,1,191.868,432H159.444a8.19,8.19,0,0,0-8.265,7.449A8.01,8.01,0,0,0,159.16,448h41.168q-1.194,3.633-2.688,7.18l-.076.178A27.315,27.315,0,0,1,172.42,472H138.494a8.19,8.19,0,0,0-8.265,7.449A8.01,8.01,0,0,0,138.21,488h38.682c31.184,15.633,63.54,24,95.108,24,66.7,0,128.262-27.927,173.342-78.636C487.7,385.712,512,321.065,512,256S487.7,126.288,445.342,78.636ZM104,200a24,24,0,1,1,24-24A24,24,0,0,1,104,200Zm72-48a24,24,0,1,1,24-24A24.027,24.027,0,0,1,176,152Zm.03-72h-.06a114.881,114.881,0,0,0-25.72,2.78c-7.32,1.71-13.72,4.47-17.13,7.37a8,8,0,1,1-10.24-12.3c5.68-4.68,13.42-8.16,23.67-10.63a136.284,136.284,0,0,1,58.9,0c10.239,2.47,17.989,5.95,23.67,10.63a8,8,0,0,1-10.24,12.3c-3.41-2.9-9.811-5.66-17.14-7.37A114.79,114.79,0,0,0,176.03,80ZM264,256H216a8,8,0,0,1,0-16h48a8,8,0,0,1,0,16Zm72-84a24,24,0,1,1,24-24A24.027,24.027,0,0,1,336,172Zm-6.46-62.03c-20.75,1.91-39.41,2.02-41.471,2.03H288a8,8,0,0,1,0-16c.02,0,.64,0,1.83-.01,1.09-.01,2.88-.04,5.2-.09,5.949-.14,11.94-.39,17.82-.73,12.94-.75,31.469-2.34,46.28-5.72,8.88-1.94,16.82-4.99,19.75-7.6a8,8,0,0,1,10.24,12.3c-7.16,5.79-16.94,8.66-26.45,10.9A262.091,262.091,0,0,1,329.54,109.97ZM408,200a24,24,0,1,1,24-24A24,24,0,0,1,408,200Z" style="fill:#231f20"/></g></g></svg>
