<svg id="Capa_1" enable-background="new 0 0 511.999 511.999" height="512" viewBox="0 0 511.999 511.999" width="512" xmlns="http://www.w3.org/2000/svg"><g><g><g><path d="m256.237 309.176c-4.267 0-7.726-3.459-7.726-7.726 0-39.206 12.465-76.995 37.048-112.314 2.439-3.503 7.253-4.366 10.756-1.928 3.502 2.438 4.365 7.253 1.928 10.755-22.746 32.679-34.278 67.497-34.278 103.487-.002 4.268-3.461 7.726-7.728 7.726z" fill="#64d465"/></g></g><g><path d="m256.6 309.176c-4.267 0-7.726-3.459-7.726-7.726 0-41.525-5.64-82.616-16.762-122.129-1.156-4.108 1.236-8.375 5.344-9.531 4.109-1.156 8.375 1.235 9.531 5.344 11.507 40.876 17.341 83.375 17.341 126.317-.001 4.267-3.461 7.725-7.728 7.725z" fill="#80e178"/></g><g fill="#64d465"><path d="m190.283 210.441c-4.825-2.15-9.349 3.568-6.222 7.854 10.96 15.022 25.126 41.876 25.126 80.322h46.554c.001 0-9.176-63.096-65.458-88.176z"/><path d="m163.286 236.934c-3.376-1.504-6.54 2.496-4.352 5.494 7.667 10.509 17.577 29.294 17.577 56.189h32.567c-.001 0-6.42-44.139-45.792-61.683z"/><path d="m315.499 224.849c4.037-1.799 7.821 2.985 5.205 6.571-9.169 12.568-21.021 35.034-21.021 67.197h-38.947s7.677-52.787 54.763-73.768z"/></g><path d="m198.912 214.784c-2.748-1.544-5.617-3.001-8.629-4.343-4.825-2.15-9.349 3.568-6.222 7.854 10.96 15.022 25.126 41.876 25.126 80.322h15.852c0-38.445-14.167-65.299-25.126-80.322-.822-1.128-1.104-2.353-1.001-3.511z" fill="#40c140"/><path d="m163.286 236.934c-3.376-1.504-6.54 2.496-4.352 5.494 7.667 10.509 17.577 29.294 17.577 56.188h15.852c0-25.37-8.817-43.516-16.252-54.314-3.83-2.757-8.087-5.256-12.825-7.368z" fill="#40c140"/><path d="m321.372 230.098c1.036-3.312-2.317-6.834-5.873-5.25-47.086 20.982-54.763 73.768-54.763 73.768h15.852c0 .001 6.569-45.13 44.784-68.518z" fill="#40c140"/><path d="m167.895 511.999h175.694c7.707 0 14.278-5.622 15.522-13.279l17.411-107.128h-241.561l17.411 107.128c1.245 7.657 7.816 13.279 15.523 13.279z" fill="#f87c68"/><path d="m201.478 498.72-17.411-107.128h-49.106l17.411 107.128c1.244 7.657 7.816 13.279 15.522 13.279h49.106c-7.706 0-14.277-5.622-15.522-13.279z" fill="#ec625e"/><path d="m135.369 394.096h240.747l5.709-35.127h-252.165z" fill="#ec625e"/><path d="m129.66 358.969 5.709 35.127h49.105l-5.709-35.127z" fill="#df4854"/><path d="m255.984 132.311c0-11.438 12.219-21.049 28.76-23.784 2.733-.452 4.412-3.273 3.434-5.865-5.217-13.828-4.123-27.419 2.974-34.383-6.351-4.085-14.379-7.102-23.37-8.589-3.632-.6-5.863-4.349-4.564-7.793 7.876-20.876 4.94-41.36-8.236-48.967-13.163-7.599-32.342.076-46.48 17.296-2.354 2.868-6.721 2.868-9.075 0-14.137-17.22-33.317-24.895-46.48-17.296-13.177 7.608-16.112 28.091-8.236 48.967 1.299 3.444-.932 7.193-4.564 7.793-21.981 3.634-38.217 16.406-38.217 31.605s16.236 27.971 38.217 31.604c3.632.6 5.863 4.349 4.564 7.793-7.875 20.876-4.94 41.359 8.236 48.967 13.163 7.599 32.342-.076 46.48-17.296 2.354-2.868 6.721-2.868 9.075 0 14.137 17.22 33.317 24.895 46.48 17.296 9.048-5.224 13.266-16.518 12.472-29.842-7.078-4.454-11.47-10.651-11.47-17.506z" fill="#f4dd45"/><g><path d="m172.268 130.693c1.3-3.444-.932-7.193-4.564-7.793-21.981-3.634-38.218-16.406-38.218-31.604 0-15.199 16.237-27.971 38.218-31.605 3.632-.6 5.863-4.349 4.564-7.793-7.611-20.176-5.123-39.983 6.947-48.156-9.346-4.508-18.781-5.134-26.268-.811-13.177 7.607-16.112 28.091-8.236 48.967 1.299 3.444-.932 7.193-4.564 7.793-21.981 3.634-38.217 16.406-38.217 31.605s16.237 27.971 38.217 31.604c3.632.6 5.863 4.349 4.564 7.793-7.875 20.876-4.94 41.359 8.236 48.967 7.488 4.323 16.922 3.697 26.268-.811-12.07-8.173-14.558-27.979-6.947-48.156z" fill="#fcc101"/></g><path d="m380.878 156.603c17.187-2.841 29.191-12.83 29.191-24.292s-12.004-21.451-29.191-24.292c-2.428-.401-3.894-2.901-3.036-5.175 6.159-16.327 3.518-31.738-6.423-37.477-9.925-5.73-24.579-.33-35.633 13.135-1.567 1.908-4.469 1.905-6.034 0-11.054-13.465-25.706-18.865-35.633-13.135-9.941 5.739-12.582 21.151-6.423 37.478.86 2.279-.614 4.775-3.037 5.175-17.187 2.841-29.191 12.831-29.191 24.292s12.004 21.451 29.191 24.292c2.423.4 3.896 2.896 3.037 5.175-6.159 16.327-3.518 31.738 6.423 37.477 11.314 6.534 26.241-1.696 35.633-13.135 1.567-1.908 4.469-1.905 6.034 0 11.054 13.464 25.707 18.866 35.633 13.135 9.941-5.739 12.582-21.151 6.423-37.477-.858-2.275.61-4.775 3.036-5.176z" fill="#dbedff"/><g><path d="m315.254 161.778c.86-2.279-.614-4.775-3.037-5.175-17.187-2.841-29.191-12.831-29.191-24.292s12.004-21.451 29.191-24.292c2.423-.401 3.896-2.896 3.037-5.175-5.359-14.206-4.049-27.712 2.928-34.764-8.466-5.366-17.346-6.591-24.063-2.714-9.941 5.739-12.582 21.151-6.423 37.478.86 2.279-.614 4.775-3.037 5.175-17.187 2.841-29.191 12.831-29.191 24.292s12.004 21.451 29.191 24.292c2.423.4 3.896 2.896 3.037 5.175-6.159 16.327-3.518 31.738 6.423 37.477 7.326 4.231 16.165 2.268 24.036-2.744-6.952-7.059-8.253-20.546-2.901-34.733z" fill="#b5dcff"/></g><ellipse cx="332.769" cy="132.311" fill="#f87c68" rx="26.334" ry="26.334" transform="matrix(.924 -.383 .383 .924 -25.303 137.417)"/><path d="m329.827 132.311c0-10.342 5.964-19.286 14.638-23.594-3.525-1.751-7.494-2.74-11.696-2.74-14.544 0-26.333 11.79-26.333 26.334s11.79 26.334 26.333 26.334c4.202 0 8.171-.989 11.696-2.74-8.674-4.308-14.638-13.252-14.638-23.594z" fill="#ec625e"/><ellipse cx="203.964" cy="91.296" fill="#f87c68" rx="34.993" ry="34.993" transform="matrix(.924 -.383 .383 .924 -19.412 85.003)"/><path d="m192.363 91.296c0-15.223 9.724-28.17 23.297-32.983-3.658-1.297-7.593-2.01-11.696-2.01-19.326 0-34.993 15.667-34.993 34.993s15.667 34.993 34.993 34.993c4.103 0 8.038-.712 11.696-2.01-13.573-4.814-23.297-17.76-23.297-32.983z" fill="#ec625e"/><path d="m388.82 297.831h-266.155c-5.294 0-9.586 4.292-9.586 9.586v43.006c0 5.294 4.292 9.586 9.586 9.586h266.155c5.294 0 9.586-4.292 9.586-9.586v-43.006c-.001-5.294-4.292-9.586-9.586-9.586z" fill="#f87c68"/><path d="m162.184 350.423v-43.006c0-5.294 4.292-9.586 9.586-9.586h-49.106c-5.294 0-9.586 4.292-9.586 9.586v43.006c0 5.294 4.292 9.586 9.586 9.586h49.106c-5.294 0-9.586-4.292-9.586-9.586z" fill="#ec625e"/></g></svg>