<?xml version="1.0" encoding="utf-8"?>
<!-- Generator: Adobe Illustrator 22.1.0, SVG Export Plug-In . SVG Version: 6.00 Build 0)  -->
<svg version="1.1" id="图层_1" xmlns="http://www.w3.org/2000/svg" xmlns:xlink="http://www.w3.org/1999/xlink" x="0px" y="0px"
	 viewBox="0 0 256 256" style="enable-background:new 0 0 256 256;" xml:space="preserve">
<g>
	<g>
		<path d="M79.4,20.4c17.5-0.2,32.6,5.1,47.9,9.3c5.9,1.6,11.6,3.7,17.1,6.1c2.2,1,4.2,3.5,5.1,5.9c8.1,20.9,16,42,23.8,63
			c2.8,7.4,5.6,14.9,7.9,22.5c1.2,4,1.4,8.3,1.5,12.5c0,1.3-1.4,3-2.7,3.9c-30,20.3-59.9,40.7-90,60.8c-7.2,4.9-15.4,8.3-23,12.7
			c-3.6,2.1-4.4,0.8-5.2-2.6c-7.3-28.6-14.4-57.3-22.4-85.8c-2.4-8.5-0.8-16,1.1-23.7c2.8-11.5,5.7-23,9.5-34.1
			c4.6-13.5,10.3-26.8,15.5-40.2c0.2-0.5,0.5-0.9,0.6-1.4C67.7,20.9,72.9,18.5,79.4,20.4z M120.4,88.7c0.4-10.3-8.6-19.7-17.9-18.4
			c-7.7,1.1-11.9,6.1-14,13c-2,6.5-2.1,13.1,3.3,17.9c2.6,2.3,6.9,3.5,10.4,3.8c3.4,0.3,6.4-5.7,4.9-9c-2-4.3-4.2-1-6.5,0
			c-2.5,1.2-5.2,0.5-5.7-2.2c-0.5-2.7-0.3-6.1,0.9-8.6c1.8-3.9,4.8-7.7,9.6-7c4.5,0.7,5.1,5.5,6.2,9c3.9,13.1-0.4,25-7.2,35.7
			c-6.2,9.8-13.9,18.7-21.3,27.6c-6.2,7.7-7,10.9-1.6,18.3c0.9,1.3,3.3,1.6,5.1,2.1c0.7,0.2,2.3-1.1,2.3-1.4
			c-0.5-1.6-0.9-3.8-2.2-4.7c-3.8-2.7-2.8-5-0.5-7.9c6.4-8.3,12.4-17,19.1-25.1C115.9,119.4,119.5,104.6,120.4,88.7z M145.5,112.6
			c-1.7-3.2-2.7-6.9-5.1-8.8c-3.2-2.6-6.7-0.2-9.8,1.7c-6.1,3.9-7.3,10.1-2.8,16.6c2.2,3.2,1.7,5.2-0.7,7.4c-2.4,2.3-5,4.6-7.5,6.8
			c-4.2,3.6-8.8,6.9-12.8,10.7c-1.2,1.1-1,3.5-1.5,5.3c1.2,0.1,2.7,0.6,3.3,0.1c11.3-8.8,23.7-16.3,31.8-28.7
			C142.7,120.7,143.7,116.8,145.5,112.6z M164.7,129c-1.9,2.1-3.7,4.7-6.1,6.5c-20.5,15.4-41,30.8-61.7,45.9
			c-5.8,4.2-12.1,7.9-18.5,11.1c-6.1,3.1-7.2,2.3-10.7-3.8c-0.3-0.5-0.7-1.1-1.1-1.5c0,0.6-0.2,1.3-0.1,1.8c0.5,1.8,1.2,3.5,1.6,5.3
			c1.1,4.2,2.7,4.9,7.1,3.3c12.6-4.8,22.5-13.6,33.5-20.8c12.2-7.9,23.5-17.1,35-25.8c6.9-5.2,13.5-10.7,20.2-16.1
			c2.8-2.3,3.6-4.9,2.5-8.5c-3.7-12.5-7.1-25-10.8-37.5c-1.5-5-3.5-9.8-5.4-14.7c-0.3-0.6-1.1-0.9-1.7-1.4c0,0.6-0.1,1.3,0.1,1.9
			c3.4,11.6,6.9,23.3,10.3,34.9C160.9,115.8,162.7,121.9,164.7,129z M86.8,105.3c-4.9-0.1-12.3,8.4-10.9,13.1
			c0.3,1.1,3.2,2.6,3.8,2.3c1.6-1.1,2.7-3.1,4.1-4.7c1.3-1.5,2.4-3.1,3.7-4.6c1.3,1.8,3.4,3.6,3.6,5.5c0.5,4.9-1.7,9-5.2,12.6
			c-3.9,4-7.4,8.3-11,12.5c-0.4,0.5-0.3,1.4-0.4,2.2c0.6-0.2,1.4-0.2,1.8-0.5c9.3-7,17.7-14.8,19.4-27.2
			C96.3,111.8,91.2,105.4,86.8,105.3z M47.2,112.2c1.4,5.1,2.5,9.9,3.9,14.8c0.2,0.6,0.6,1.2,0.9,1.7c0.1-0.7,0.5-1.5,0.4-2.2
			c-3.3-9-1.7-17.9,0.8-26.7c1.8-6.1,3.1-12.6,5.4-18.4c6.1-14.6,12.6-29.1,18.8-43.6c1.1-2.4,2.6-2.9,5.2-2.3c4.8,1,9.7,1.4,14.5,2
			c0.5,0.1,1-0.2,1.4-0.3c-0.4-0.2-0.8-0.5-1.2-0.6c-5.8-1.4-11.5-2.9-17.2-4.2c-2.5-0.5-4,0.5-5,3C68.8,51.2,62,67,55.8,83.1
			c-2.4,6.2-3.7,13-5.6,19.4C49.3,105.9,48.2,109,47.2,112.2z M132.6,44.1c-0.5,0.1-1.2,0.4-1.8,0.5c0.6,0.5,1.3,1.3,1.9,1.4
			c6.4,1.4,9.2,5.6,9.8,11.7c0.1,0.8,0.3,1.7,0.6,2.4c0.5,1.2,1.4,2.3,2.1,3.3c0-1.2,0.2-2.4-0.1-3.6c-0.6-2.6-1.7-5.1-2.3-7.7
			C141.6,46.8,137.6,45.3,132.6,44.1z"/>
		<path d="M105.1,243.3c-5.4-2.3-11.5-4.2-16.9-7.2c-6.4-3.4-12.3-7.8-18.4-11.6c-2.1-1.4-2.7-2.3,0-3.8c4.7-2.4,9.3-4.9,13.8-7.6
			c12.8-7.8,25.7-15.6,38.4-23.7c4.2-2.7,8-6.2,12.3-9c15.2-10.5,30.4-20.9,45.6-31.2c6.2-4.2,7.3-3.6,12.6,1.8
			c4.7,4.8,10.4,8.6,15.6,12.9c11.9,9.7,12.1,10.9-0.4,19.8c-27.5,19.3-55.5,37.6-86,52c-4.2,2.1-8.5,4.2-12.7,6.3
			C108,242.4,106.9,242.7,105.1,243.3z"/>
		<path d="M155.7,42.5c1.6,0.8,2.8,1.2,3.7,1.9c12.8,11.2,25.2,22.5,30.4,40c4.6,15.4,11.6,29.9,17.2,45
			c4.1,10.7,7.8,21.7,11.6,32.5c0.5,1.2,0.4,2.5,0.5,3.8c-1.4-0.5-2.8-0.9-3.9-1.7c-3.1-2.3-5.9-5.1-9-7.4
			c-10.8-8.1-16.6-19.2-21.1-31.8c-9.2-25.8-19.4-51.2-29.3-76.8c-0.5-1.1-1-2.2-1.2-3.3C154.7,43.9,155.4,43.2,155.7,42.5z"/>
		<path d="M134,109c1.3,2.1,2.4,3.3,2.6,4.7c0.1,0.7-1.4,1.7-2.3,2.6c-1.1-1.3-2.4-2.4-3.1-4C131,112,132.6,110.7,134,109z"/>
	</g>
</g>
</svg>
