<?xml version="1.0" encoding="iso-8859-1"?>
<!-- Generator: Adobe Illustrator 19.0.0, SVG Export Plug-In . SVG Version: 6.00 Build 0)  -->
<svg version="1.1" id="Capa_1" xmlns="http://www.w3.org/2000/svg" xmlns:xlink="http://www.w3.org/1999/xlink" x="0px" y="0px"
	 viewBox="0 0 496 496" style="enable-background:new 0 0 496 496;" xml:space="preserve">
<g>
	<g>
		<g>
			<path d="M248,392c17.648,0,32-14.352,32-32s-14.352-32-32-32s-32,14.352-32,32S230.352,392,248,392z M248,344
				c8.824,0,16,7.176,16,16c0,8.824-7.176,16-16,16c-8.824,0-16-7.176-16-16C232,351.176,239.176,344,248,344z"/>
			<path d="M472,112c-4.817,0-9.304,1.432-13.067,3.886l-23.925-13.67C418.72,92.92,400.216,88,381.472,88
				c-32.844,0-63.535,14.819-83.919,40.068l-32.645-87.055C269.285,36.663,272,30.642,272,24c0-13.232-10.768-24-24-24
				s-24,10.768-24,24c0,6.629,2.703,12.639,7.064,16.987l-32.634,87.061C178.047,102.811,147.363,88,114.528,88
				c-18.736,0-37.248,4.92-53.536,14.224L37.074,115.89C33.309,113.434,28.82,112,24,112c-13.232,0-24,10.768-24,24s10.768,24,24,24
				c7.09,0,13.47-3.094,17.868-8H59.16c12.04,0,23.712,3.536,33.744,10.216C109.872,173.528,120,192.456,120,212.84V224v8v32.805
				c-18.236,3.716-32,19.878-32,39.195c0,19.317,13.764,35.479,32,39.195V368c0,70.576,57.424,128,128,128s128-57.424,128-128
				v-24.805c18.236-3.716,32-19.878,32-39.195s-13.764-35.479-32-39.195V232v-8v-11.16c0-20.384,10.128-39.312,27.088-50.624
				C413.12,155.536,424.792,152,436.84,152h17.292c4.398,4.906,10.778,8,17.868,8c13.232,0,24-10.768,24-24S485.232,112,472,112z
				 M294.339,224l-57.933-38.624l-8.875,13.312L265.497,224h-39.029l-37.538-25.024l7.822-20.867l14.774,9.849l8.875-13.314
				l-17.883-11.921l6.231-16.623l104.633,69.751l3.055,8.148H294.339z M183.163,214.362L197.621,224h-18.071L183.163,214.362z
				 M214.517,130.715l6.23-16.621l72.635,48.421l10.386,27.698L214.517,130.715z M226.515,98.709l6.228-16.615l40.644,27.094
				l10.382,27.688L226.515,98.709z M248,16c4.416,0,8,3.592,8,8s-3.584,8-8,8s-8-3.592-8-8S243.584,16,248,16z M248,48
				c0.809,0,1.608-0.042,2.396-0.12l13.375,35.669L238.51,66.709l7.059-18.831C246.368,47.958,247.179,48,248,48z M24,144
				c-4.416,0-8-3.592-8-8s3.584-8,8-8s8,3.592,8,8S28.416,144,24,144z M101.784,148.904C89.112,140.464,74.376,136,59.16,136H48
				c0-2.538-0.399-4.985-1.133-7.283l22.061-12.605C82.8,108.184,98.568,104,114.528,104c30.808,0,59.392,15.304,76.472,40.928
				l0.706,1.058L162.463,224H136v-11.16C136,187.096,123.208,163.192,101.784,148.904z M104,304c0-10.428,6.689-19.32,16-22.623
				v45.247C110.689,323.32,104,314.428,104,304z M248,480c-61.76,0-112-50.24-112-112v-96h192v-16H136v-16h224v16h-16v16h16v96
				C360,429.76,309.76,480,248,480z M392,304c0,10.428-6.689,19.32-16,22.623v-45.247C385.311,284.68,392,293.572,392,304z
				 M436.84,136c-15.216,0-29.952,4.464-42.624,12.904C372.792,163.192,360,187.096,360,212.84V224h-26.474l-29.248-77.997
				L305,144.92c17.08-25.624,45.664-40.928,76.472-40.928c15.96,0,31.728,4.192,45.6,12.112l22.064,12.606
				c-0.735,2.3-1.136,4.749-1.136,7.29H436.84z M472,144c-4.416,0-8-3.592-8-8s3.584-8,8-8c4.416,0,8,3.592,8,8S476.416,144,472,144
				z"/>
			<polygon points="304,336 320,336 320,320 336,320 336,304 320,304 320,288 304,288 304,304 288,304 288,320 304,320 			"/>
			<polygon points="176,336 192,336 192,320 208,320 208,304 192,304 192,288 176,288 176,304 160,304 160,320 176,320 			"/>
			<path d="M314.312,360h-2.064c-11.872,0-22.344,8-26.048,19.896C280.976,396.704,265.624,408,248,408
				c-17.624,0-32.976-11.296-38.2-28.104C206.096,368,195.624,360,183.752,360h-2.064c-8.544,0-16.384,3.912-21.504,10.744
				c-5.216,6.952-6.808,15.752-4.36,24.16C167.672,435.584,205.576,464,248,464s80.328-28.416,92.176-69.096
				c2.448-8.408,0.856-17.208-4.36-24.16C330.696,363.912,322.856,360,314.312,360z M324.824,390.424
				C314.944,424.328,283.352,448,248,448s-66.944-23.672-76.824-57.576c-1.024-3.52-0.368-7.2,1.8-10.08
				c2.072-2.76,5.248-4.344,8.712-4.344h2.064c4.904,0,9.128,3.392,10.76,8.648C201.832,408.184,223.328,424,248,424
				s46.168-15.816,53.48-39.344c1.632-5.264,5.864-8.656,10.768-8.656h2.064c3.464,0,6.64,1.584,8.712,4.344
				C325.192,383.232,325.848,386.904,324.824,390.424z"/>
		</g>
	</g>
</g>
<g>
</g>
<g>
</g>
<g>
</g>
<g>
</g>
<g>
</g>
<g>
</g>
<g>
</g>
<g>
</g>
<g>
</g>
<g>
</g>
<g>
</g>
<g>
</g>
<g>
</g>
<g>
</g>
<g>
</g>
</svg>
