<svg id="图层_1" data-name="图层 1" xmlns="http://www.w3.org/2000/svg" viewBox="0 0 240 240"><path d="M202.9,162.94c-1.76-18.51-6.5-30.93-14.1-37V80.44a57.57,57.57,0,0,0-9.38-27.58C171.26,40.51,154.34,25.8,120,25.8S68.74,40.51,60.59,52.86a57.57,57.57,0,0,0-9.38,27.58V125.9c-7.6,6.11-12.34,18.53-14.1,37a21.28,21.28,0,0,0,5.56,16.49A23.59,23.59,0,0,0,60.13,187H179.87a23.59,23.59,0,0,0,17.47-7.61A21.28,21.28,0,0,0,202.9,162.94ZM187,170a9.56,9.56,0,0,1-7.11,3H60.13A9.56,9.56,0,0,1,53,170a7.4,7.4,0,0,1-2-5.74c1.73-18.12,6.38-26.46,10.14-28.22l4-1.89V80.78c.13-2.64,2.89-41,54.8-41,52.06,0,54.69,38.56,54.8,41v53.39l4,1.89c3.76,1.76,8.41,10.1,10.14,28.22A7.4,7.4,0,0,1,187,170Z"/><path d="M99.93,193.17l-9.57,10.22c7.65,7.17,19,10.75,30.31,10.75s22.66-3.58,30.31-10.75l-9.57-10.22C131.33,202.61,110,202.61,99.93,193.17Z"/></svg>