<svg fill="none" height="512" viewBox="0 0 24 24" width="512" xmlns="http://www.w3.org/2000/svg"><path d="m12 22c-5.523 0-10-4.477-10-10s4.477-10 10-10 10 4.477 10 10-4.477 10-10 10zm0-2c2.1217 0 4.1566-.8429 5.6569-2.3431 1.5002-1.5003 2.3431-3.5352 2.3431-5.6569 0-2.12173-.8429-4.15656-2.3431-5.65685-1.5003-1.5003-3.5352-2.34315-5.6569-2.34315-2.12173 0-4.15656.84285-5.65685 2.34315-1.5003 1.50029-2.34315 3.53512-2.34315 5.65685 0 2.1217.84285 4.1566 2.34315 5.6569 1.50029 1.5002 3.53512 2.3431 5.65685 2.3431zm0-12.95 4.95 4.95-4.95 4.95-4.95-4.95zm0 2.829-2.121 2.121 2.121 2.121 2.121-2.121z" fill="rgb(0,0,0)"/></svg>