<svg id="图层_1" data-name="图层 1" xmlns="http://www.w3.org/2000/svg" viewBox="0 0 240 240"><path d="M120,23.43A96.57,96.57,0,1,0,216.57,120,96.68,96.68,0,0,0,120,23.43Zm0,179.14A82.57,82.57,0,1,1,202.57,120,82.66,82.66,0,0,1,120,202.57Z"/><path d="M132.73,79.2a18,18,0,0,0-25.46,0L79.2,107.27a18,18,0,0,0,0,25.46l28.07,28.07a18,18,0,0,0,25.46,0l28.07-28.07a18,18,0,0,0,0-25.46Zm19.58,45-28.07,28.07a6,6,0,0,1-8.48,0L87.69,124.24a6,6,0,0,1,0-8.48l28.07-28.07a6,6,0,0,1,8.48,0l28.07,28.07A6,6,0,0,1,152.31,124.24Z"/></svg>