<?xml version="1.0" encoding="utf-8"?>
<!-- Generator: Adobe Illustrator 27.0.1, SVG Export Plug-In . SVG Version: 6.00 Build 0)  -->
<svg version="1.1" id="图层_1" xmlns="http://www.w3.org/2000/svg" xmlns:xlink="http://www.w3.org/1999/xlink" x="0px" y="0px"
	 viewBox="0 0 256 256" style="enable-background:new 0 0 256 256;" xml:space="preserve">
<g>
	<g>
		<path d="M127.9,256C56.9,256-0.8,198,0,126.5C0.8,56.2,58.5-0.9,129.7,0C200,0.9,256.9,58.6,256,129.8
			C255,199.7,198,256.1,127.9,256z M14.4,128c0,62.7,50.7,113.5,113.4,113.7c62.8,0.2,113.8-50.8,113.9-113.5
			c0-62.9-50.8-113.9-113.9-113.8C65.1,14.6,14.6,65.3,14.4,128z"/>
		<path d="M127.9,191.1c-21-21-42-42-62.9-62.9c21-21,42.1-42.1,63.1-63.1C149,85.9,170.1,107,191,128
			C170.1,149,149,170,127.9,191.1z M83.4,128c14.9,14.9,29.9,29.9,44.6,44.6c14.9-14.9,29.8-29.8,44.6-44.6
			c-14.8-14.8-29.8-29.8-44.6-44.6C113.2,98.2,98.2,113.2,83.4,128z"/>
	</g>
</g>
</svg>
