<svg id="图层_1" data-name="图层 1" xmlns="http://www.w3.org/2000/svg" viewBox="0 0 240 240"><path d="M193.16,190.17a9.94,9.94,0,0,1-9.93,9.92H41.17V69.41a9.94,9.94,0,0,1,9.93-9.92H92.38v-12H51.1A22,22,0,0,0,29.17,69.41V212.09H183.23a22,22,0,0,0,21.93-21.92V141.83h-12Z"/><path d="M205.91,35.12a24.68,24.68,0,0,0-34.85,0L163,43.24,85.41,120.78a5.93,5.93,0,0,0-1.64,3.07h0v0h0L75,167.76,118.88,159a6,6,0,0,0,3.07-1.64l77.54-77.54,8.12-8.12a24.67,24.67,0,0,0,0-34.84ZM93.33,137.19l12.21,12.21-15.27,3.06Zm24.38,7.41L98.14,125l69.05-69,19.58,19.57Zm81.41-81.41-3.87,3.87L175.68,47.48l3.87-3.87a12.64,12.64,0,0,1,17.87,0l1.7,1.7A12.66,12.66,0,0,1,199.12,63.19Z"/></svg>