<svg id="图层_1" data-name="图层 1" xmlns="http://www.w3.org/2000/svg" viewBox="0 0 384 284.64">
    <path class="cls-1" style="fill:#98e5fb;" d="M192.75,407.25c2.67-5.33,7-7.07,12.87-6.83,9.47.38,19,.1,28.46.11,7.58,0,11.15,3.61,11.17,11.23,0,1.5.06,3,.09,4.49q0,28.51,0,57l-.25,9c-2.31,5.07-6.34,6.86-11.77,6.75-9.24-.2-18.49-.34-27.72.05-5.89.24-10.2-1.49-12.87-6.83Z" transform="translate(-192.75 -242.24)" />
    <path class="cls-2" style="fill:#e20356;" d="M576.75,292.5c-.59,1.81-1.2,3.62-1.77,5.44a47.18,47.18,0,0,1-11.75,19.63l-39,38.68c-1,.92-2.06,1.8-3,2.76q-7.73,7.65-15.42,15.32c-2.32,2.32-4.61,2.74-7.09.23q-8.26-8.42-16.58-16.78c1-.88,2.14-1.7,3.1-2.65,16.77-16.74,33.63-33.38,50.23-50.28,13-13.22,16.63-29.08,11.09-46.65-1.75-5.57-5.31-10.56-8-15.82,15.46-.86,29.14,9,35.23,25.39,1.18,3.18,2,6.48,3,9.73Z" transform="translate(-192.75 -242.24)" />
    <path class="cls-3" style="fill:#2fd0e1;" d="M192.75,482.25c2.67,5.34,7,7.07,12.87,6.83,9.23-.39,18.48-.25,27.72-.05,5.43.11,9.46-1.68,11.77-6.75l.27,11.14c0,2.24,0,4.49-.16,6.72-.29,4.71-3.63,8.38-8.34,8.44-12,.18-23.93.08-35.9,0-4.2,0-6.21-3.11-8.23-6.12Z" transform="translate(-192.75 -242.24)" />
    <path class="cls-4" style="fill:#fd76a7;" d="M299.48,403.45c-5.14-10.58-8.17-21.74-8-33.53.34-26.5,9.52-48.75,33.16-62.67,14.81-8.72,30.86-7.58,46.69-2.24a88,88,0,0,1,33.94,21.33c2.42,2.38,3.93,2.07,6.12-.11a85.58,85.58,0,0,1,23-16.46c3.66,4,7.21,8.2,11,12.11,6.17,6.34,12.49,12.52,18.75,18.77,2.18,11.05,4.81,22,3.16,33.49A90.72,90.72,0,0,1,459,401.78c-4.68,9.49-12.23,16.6-19.17,24.18-10.61,11.57-21.65,22.73-32.45,34.12-3.43,3.61-6.68,7.38-10,11.08-8.39-1.75-16.81-3.37-25.15-5.3a121.26,121.26,0,0,1-16.77-4.76c-5-2-7.59-8.16-6.4-13,1.53-6.23,5.89-10.17,11.79-10,4.84.1,9.66.78,14.48,1.19,6.94.59,13.88,1.74,20.8,1.63,12-.2,22.2-7.94,21-21.35-.73-7.87-8.49-16.62-17.55-18.89-3.37-.84-6.81-1.43-10.25-2-9.06-1.43-18.11-3.27-27.24-4-14.15-1.18-27.95,2-41.74,4.75Q309.89,401.44,299.48,403.45Z" transform="translate(-192.75 -242.24)" />
    <path class="cls-5" style="fill:#fdd0a2;" d="M299.48,403.45q10.39-2,20.8-4.08c13.79-2.74,27.59-5.93,41.74-4.75,9.13.75,18.18,2.59,27.24,4,3.44.54,6.88,1.13,10.25,2,9.06,2.27,16.82,11,17.55,18.89,1.23,13.41-8.95,21.15-21,21.35-6.92.11-13.86-1-20.8-1.63-4.82-.41-9.64-1.09-14.48-1.19-5.9-.13-10.26,3.81-11.79,10-1.19,4.87,1.4,11.07,6.4,13a121.26,121.26,0,0,0,16.77,4.76c8.34,1.93,16.76,3.55,25.15,5.3,18.25,4.62,36.42,10.1,55.55,5.06,8.94-1.33,17.89-2.64,26.83-4,14.21-2.15,28.4-4.43,42.63-6.45a51.31,51.31,0,0,1,13.19-.61c2.62.32,5,2.72,7.49,4.18a30.18,30.18,0,0,1-3.62,4.51c-4.76,4.1-10.9,4.71-16.68,6-38.08,8.3-76.22,16.36-114.29,24.73-13.48,3-26.8,3.62-40.24.08q-24.33-6.42-48.73-12.63-37-9.43-74.11-18.74,0-28.5,0-57,25-5.62,50-11.29A33.44,33.44,0,0,0,299.48,403.45Z" transform="translate(-192.75 -242.24)" />
    <path class="cls-6" style="fill:#fd0263;" d="M464.17,340.65c-6.26-6.25-12.58-12.43-18.75-18.77-3.8-3.91-7.35-8.07-11-12.11-4.72-8.85-7.45-18.11-6.93-28.31.91-17.82,13-34.35,28.66-38.09,14.31-3.41,26.84,1.16,38.18,9.75,2.67,2,5.09,4.34,7.86,6.72,10.26-10,21.63-17.25,36.32-17.46,2.73,5.26,6.29,10.25,8,15.82,5.54,17.57,1.91,33.43-11.09,46.65-16.6,16.9-33.46,33.54-50.23,50.28-1,.95-2.06,1.77-3.09,2.65-1.1-1-2.21-2-3.28-3Q471.5,347.73,464.17,340.65Z" transform="translate(-192.75 -242.24)" />
    <path class="cls-7" style="fill:#fd5694;" d="M464.17,340.65q7.33,7.07,14.68,14.13c1.07,1,2.18,2,3.28,3q8.28,8.39,16.57,16.78c2.48,2.51,4.77,2.09,7.09-.23q7.68-7.69,15.42-15.32c1-1,2-1.84,3-2.76,2.11,15.38.54,30.25-6,44.5-3.93,8.63-9.63,16-16.08,22.79Q478.08,449.11,454,474.76a17.76,17.76,0,0,0-1.13,1.46c-19.13,5-37.3-.44-55.55-5.06,3.32-3.7,6.57-7.47,10-11.08,10.8-11.39,21.84-22.55,32.45-34.12,6.94-7.58,14.49-14.69,19.17-24.18a90.72,90.72,0,0,0,8.37-27.64C469,362.65,466.35,351.7,464.17,340.65Z" transform="translate(-192.75 -242.24)" />
    <path class="cls-8" style="fill:#febc85;" d="M245.36,473.27q37,9.38,74.11,18.74,24.39,6.21,48.73,12.63c13.44,3.54,26.76,2.88,40.24-.08,38.07-8.37,76.21-16.43,114.29-24.73,5.78-1.26,11.92-1.87,16.68-6a30.18,30.18,0,0,0,3.62-4.51c4.72,4,4.46,9.32,3.14,14.45-2,7.87-7.73,12.41-15.46,14.11-30,6.62-60,13.07-90,19.58-9.84,2.13-19.78,3.88-29.51,6.45-16.2,4.27-32,3.72-48.22-.65-38.69-10.41-77.62-19.9-116.46-29.75a8.19,8.19,0,0,0-1.11-.12l-.27-11.14C245.19,479.28,245.28,476.28,245.36,473.27Z" transform="translate(-192.75 -242.24)" />
</svg>