<svg id="图层_1" data-name="图层 1" xmlns="http://www.w3.org/2000/svg" viewBox="0 0 384 371.72"><path class="cls-1" style="fill:#fd76a7;" d="M255.8,409.5c-8.47-.25-17,.15-25.37-.92-13.13-1.69-24.83-6.82-32.41-18.44-2.27-3.46-3.54-7.57-5.27-11.39V372c2.76-2.51,5.29-5.35,8.33-7.46,11.29-7.83,23.82-8.46,36.35-4.34,8.67,2.86,16.8,7.35,25.17,11.11-.36.78-.71,1.56-1.06,2.34-9.79-2.27-19.54-4.74-29.39-6.69-3-.6-5.54,1.32-6.26,4.66-.59,2.74,1.34,5.53,4.4,6.48a22.47,22.47,0,0,0,3.29.62c2.82.45,5.69.69,8.46,1.34,6.17,1.46,12.28,3.11,18.42,4.68l9,17.31-12.3,6.88-1.41.61Z" transform="translate(-192.75 -198.95)"/><path class="cls-2" style="fill:#fd5794;" d="M262.6,371.32c-8.37-3.77-16.5-8.26-25.17-11.12-12.53-4.12-25.06-3.49-36.35,4.34-3,2.11-5.57,4.95-8.33,7.46v-5.25c.23-.27.6-.52.66-.83,3.39-16.93,19.77-27.87,38.51-26.34,17.93,1.45,32.51,10.17,46.38,20.61-1.29.94-2.57,1.9-3.87,2.82Z" transform="translate(-192.75 -198.95)"/><path class="cls-3" style="fill:#e0d2ce;" d="M576.75,253.5c-2.71,1.36-5.3,3.14-8.16,4-21,6.51-36.44,19.61-46.57,38.91-3.11,5.91-5.16,12.37-7.63,18.6-1.15,2.92-3.31,4.48-6.31,4.12s-5.14-2.48-4.74-5.66a40,40,0,0,1,2.43-9.33c5.43-14.11,13.17-26.77,24.22-37.25a88,88,0,0,1,39.6-21.42c3.43-.88,5.34,1.18,7.16,3.5Z" transform="translate(-192.75 -198.95)"/><path class="cls-4" style="fill:#99e5fb;" d="M322.46,425.84l33.12.18q0,50.69,0,101.38c0,14.33.06,28.67.1,43-1.62.08-3.23.24-4.85.24q-30,0-59.9,0c-6.31,0-12.41-1.13-15.73-7.28a18.58,18.58,0,0,1-2.13-8.5c-.14-32.32-.08-64.64-.13-97a23.22,23.22,0,0,0-.76-4.23c1.92-1.08,3.87-2.1,5.75-3.23,4.71-2.83,9.39-5.7,14.08-8.55,2.12-1,4.3-1.8,6.34-2.9C306.41,434.65,314.43,430.23,322.46,425.84Z" transform="translate(-192.75 -198.95)"/><path class="cls-5" style="fill:#fd76a8;" d="M355.68,570.41c0-14.34-.1-28.68-.1-43q0-50.68,0-101.38h54.65q0,40.59,0,81.19,0,31.62-.09,63.24Z" transform="translate(-192.75 -198.95)"/><path class="cls-6" style="fill:#98e5fb;" d="M410.13,570.44q0-31.62.09-63.24,0-40.59,0-81.19l44.25-.13c2.93,2,5.42,4,5.41,8.23-.1,40.74-.05,81.49-.08,122.23,0,5.47-2.6,9.47-7.36,12.16a14.39,14.39,0,0,0-2.31,2.06Z" transform="translate(-192.75 -198.95)"/><path class="cls-7" style="fill:#2fd0e1;" d="M450.14,570.56a14.39,14.39,0,0,1,2.31-2.06c4.76-2.69,7.35-6.69,7.36-12.16,0-40.74,0-81.49.08-122.23,0-4.19-2.48-6.23-5.41-8.23,9.49,0,19-.1,28.48-.09,7.31,0,9.94,2.63,10,9.93q0,48.72,0,97.45c0,7.12,0,14.25,0,21.37-.07,10.05-6,16-16.16,16C467.88,570.64,459,570.57,450.14,570.56Z" transform="translate(-192.75 -198.95)"/><path class="cls-8" style="fill:#03cffa;" d="M292,441.89c-4.69,2.85-9.37,5.72-14.08,8.55-1.88,1.13-3.83,2.15-5.75,3.23l-43.19,24c-7.86,4.36-13.79,2.69-18.14-5.1-3.34-6-6.7-12-10-18-3.78-6.91-2.06-12.85,4.86-16.72q23.37-13.06,46.75-26.08c1.16-.66,2.22-1.5,3.34-2.26l-.06,0,1.41-.61,12.3-6.88h.33Z" transform="translate(-192.75 -198.95)"/><path class="cls-9" style="fill:#fc5694;" d="M292,441.89l-22.23-39.84c7.8-4.33,15.61-8.63,23.38-13,6.36-3.58,12.66-7.25,19-10.88L331.39,368l22.27,39.88q-14.52,8.26-29,16.54c-.74.43-1.44.94-2.16,1.41-8,4.39-16,8.81-24.11,13.15C296.31,440.09,294.13,440.93,292,441.89Z" transform="translate(-192.75 -198.95)"/><path class="cls-10" style="fill:#02cffa;" d="M353.66,407.89,331.39,368l.06-.34,14.26-8,.84-1.11,0,.06a24.21,24.21,0,0,0,3.62-1.27c7.54-4.08,15-8.23,22.54-12.36,7.2-1,11.77,2.36,14.83,8.6a104.19,104.19,0,0,0,6.1,11.06c4,6.22,6.62,12.49,2.63,19.71l0-.13-.93.68Z" transform="translate(-192.75 -198.95)"/><path class="cls-1" style="fill:#fd76a7;" d="M292.2,352.71c-2.17-17.7-1.4-35,7.13-51.19,3.1-5.87,7.21-11,13.2-14.32,1.46.27,2.92.55,4.38.8,14,2.42,25.42,16,25.89,30.18.52,16.22-5.54,30-15,42.59l-5.47-9.53a9,9,0,0,0,.83-2.08A74.62,74.62,0,0,1,332,322.32c1.68-3.11.78-6.12-2-7.76-2.92-1.74-6.06-1-8,2.31a75.81,75.81,0,0,0-9.94,28.79,20.58,20.58,0,0,0-13.32,3.65A60.83,60.83,0,0,1,292.2,352.71Z" transform="translate(-192.75 -198.95)"/><path class="cls-2" style="fill:#fd5794;" d="M327.77,360.77c9.49-12.61,15.55-26.37,15-42.59-.47-14.22-11.87-27.76-25.89-30.18-1.46-.25-2.92-.53-4.38-.8,15.74-11.63,40.75-5,48.24,15.09,4.35,11.63,2.91,23.16-2,34.17-2.9,6.57-6.95,12.63-10.48,18.92l-1.8,3.2,0-.06-.84,1.11-14.26,8Q329.62,364.22,327.77,360.77Z" transform="translate(-192.75 -198.95)"/><path class="cls-11" style="fill:#fdcc84;" d="M312.15,378.17c-6.33,3.63-12.63,7.3-19,10.88-7.77,4.37-15.58,8.67-23.38,13h-.33l-9-17.31,1.08-11.09c.35-.78.7-1.56,1.06-2.34l11.83-8.3c1.3-.92,2.58-1.88,3.87-2.82l8.22-3.91.72-.09,0,0c8.46-.42,14.86,2.64,18.65,10.6C307.7,370.72,310,374.4,312.15,378.17Z" transform="translate(-192.75 -198.95)"/><path class="cls-12" style="fill:#02b1cd;" d="M396.25,384.32c4-7.22,1.41-13.49-2.63-19.71a104.19,104.19,0,0,1-6.1-11.06c-3.06-6.24-7.63-9.62-14.83-8.6,8.21-4.66,16.33-9.49,24.66-13.91a10.72,10.72,0,0,1,14.12,4.06c4.27,7.16,8.32,14.46,12.2,21.84,2.64,5,1.16,11.37-3.6,14.22C412.29,375.81,404.21,380,396.25,384.32Z" transform="translate(-192.75 -198.95)"/><path class="cls-3" style="fill:#e0d2ce;" d="M475.48,316.18c.94,19.77-.92,39.28-7.43,58.1-2.83,8.18-6.65,15.88-12.82,22.15-3,3.06-5.41,3.22-8.15.74-2.2-2-2.42-5.4-.17-8.11C457,376.85,461.12,362.3,462.66,347c1.29-12.86,1.73-25.81,2.24-38.74a122.06,122.06,0,0,0-.8-14.9c-.33-3.89,1.62-7.1,4.87-7.53,3-.39,6.41,2.8,6.47,6.42C475.57,300.23,475.48,308.21,475.48,316.18Z" transform="translate(-192.75 -198.95)"/><path class="cls-13" style="fill:#fcb442;" d="M426.78,209c2.9,4.63,5.92,9.18,8.64,13.92a8.54,8.54,0,0,0,6,4.41c5,1.09,9.9,2.38,14.83,3.67,3.45.92,3.75,1.76,1.57,4.49-3.11,3.89-6.14,7.87-9.55,11.49-2.6,2.76-3.11,5.77-2.7,9.27.48,4.2.88,8.41,1.24,12.62.46,5.36-.27,5.91-5.13,3.93-3.34-1.36-6.75-2.62-9.95-4.25-4.44-2.25-8.69-2.58-13.12-.07a35.16,35.16,0,0,1-4.85,1.91c.43-1.14.83-2.3,1.3-3.42,2.37-5.72,5.13-11.31,7.09-17.17C426.59,236.54,427.22,222.8,426.78,209Z" transform="translate(-192.75 -198.95)"/><path class="cls-13" style="fill:#fcb442;" d="M538.53,340.23c2.89,4.65,5.59,9.44,8.78,13.87a12,12,0,0,0,5.64,4.2c4.71,1.56,9.65,2.39,14.46,3.64,4.16,1.07,4.4,1.87,1.74,5.13a111.06,111.06,0,0,1-8,9.45c-3.82,3.73-4.46,8-3.77,13,.57,4.07.83,8.18,1.21,12.28.28,3.09-1,3.83-3.81,2.67-4-1.69-8.19-3.06-12.06-5a12.22,12.22,0,0,0-12.42.18,31.61,31.61,0,0,1-4.53,1.73c.5-1.54.89-3.14,1.53-4.62,1.66-3.89,3.65-7.65,5.12-11.6C537.85,370.62,539,355.53,538.53,340.23Z" transform="translate(-192.75 -198.95)"/><path class="cls-14" style="fill:#fdce85;" d="M426.78,209c.44,13.83-.19,27.57-4.6,40.8-2,5.86-4.72,11.45-7.09,17.17-.47,1.12-.87,2.28-1.3,3.42l-10.46,4.19c.2-4.39.29-7.7.51-11,.24-3.61,1-7.23.75-10.79-.14-2-1.55-4.16-2.87-5.87-3.62-4.7-7.51-9.21-11.9-14.54,2.79-.85,4.69-1.81,6.67-2,11.63-1,20.06-6.26,24.23-17.56a14.35,14.35,0,0,1,2.33-3.82C424.18,207.59,425.53,206.62,426.78,209Z" transform="translate(-192.75 -198.95)"/><path class="cls-15" style="fill:#fdcd85;" d="M538.53,340.23c.5,15.3-.68,30.39-6.07,44.88-1.47,3.95-3.46,7.71-5.12,11.6-.64,1.48-1,3.08-1.53,4.62-2.5,1.06-5,2.15-7.52,3.17-2.8,1.15-3.56-.05-3.33-2.77a160.69,160.69,0,0,0,1-16.38,13.9,13.9,0,0,0-2.68-7.33c-3.45-4.79-7.41-9.21-11.76-14.5,2.89-.86,4.82-1.81,6.8-1.95,11.92-.9,20-6.76,24.27-18a12.29,12.29,0,0,1,2.21-3.45C536,338.74,537.34,337.92,538.53,340.23Z" transform="translate(-192.75 -198.95)"/><path class="cls-2" style="fill:#fd5794;" d="M504.52,202.42c12.54-8.87,32.22.33,34,15.89,1.61,14.28-7.11,25.35-21.5,26.4-3.75.28-7.65-1.6-11.48-2.49,1.54-1.69,3.19-3.29,4.62-5.07C520.1,224.78,516.37,208.89,504.52,202.42Z" transform="translate(-192.75 -198.95)"/><path class="cls-16" style="fill:#fcb341;" d="M312.15,378.17c-2.12-3.77-4.45-7.45-6.3-11.35-3.79-8-10.19-11-18.65-10.6l5-3.51a60.83,60.83,0,0,0,6.57-3.4,20.58,20.58,0,0,1,13.32-3.65l10.21,5.58,5.47,9.53q1.85,3.45,3.68,6.9l-.06.34Z" transform="translate(-192.75 -198.95)"/><path class="cls-5" style="fill:#fd76a8;" d="M504.52,202.42c11.85,6.47,15.58,22.36,5.61,34.73-1.43,1.78-3.08,3.38-4.62,5.07C497.25,238,493.07,231,493,222,493,213.52,496.65,206.57,504.52,202.42Z" transform="translate(-192.75 -198.95)"/><path class="cls-16" style="fill:#fcb341;" d="M287.24,356.19l-.72.09A1,1,0,0,1,287.24,356.19Z" transform="translate(-192.75 -198.95)"/><path class="cls-12" style="fill:#02b1cd;" d="M395.29,384.87l.93-.68Z" transform="translate(-192.75 -198.95)"/><path class="cls-17" style="fill:#fd0564;" d="M261.54,373.65l-1.08,11.09c-6.14-1.57-12.25-3.22-18.42-4.68-2.77-.65-5.64-.89-8.46-1.34a22.47,22.47,0,0,1-3.29-.62c-3.06-1-5-3.74-4.4-6.48.72-3.34,3.24-5.26,6.26-4.66C242,368.91,251.75,371.38,261.54,373.65Z" transform="translate(-192.75 -198.95)"/><path class="cls-17" style="fill:#fd0564;" d="M322.3,351.24l-10.21-5.58A75.81,75.81,0,0,1,322,316.87c1.89-3.31,5-4.05,8-2.31,2.76,1.64,3.66,4.65,2,7.76a74.62,74.62,0,0,0-8.83,26.84A9,9,0,0,1,322.3,351.24Z" transform="translate(-192.75 -198.95)"/></svg>