<?xml version="1.0" encoding="utf-8"?>
<!-- Generator: Adobe Illustrator 22.1.0, SVG Export Plug-In . SVG Version: 6.00 Build 0)  -->
<svg version="1.1" id="图层_1" xmlns="http://www.w3.org/2000/svg" xmlns:xlink="http://www.w3.org/1999/xlink" x="0px" y="0px" viewBox="0 0 409.6 409.5" style="enable-background:new 0 0 409.6 409.5;" xml:space="preserve">
	<path class="st0" style="fill:#F26986;" d="M280,14.4c20,7.5,38.5,18.4,54.8,32.2c35.5,29.6,58.9,66.8,69.4,111.9c2.2,9.5,3.1,19.4,4.6,29.1
	c0.2,0.7,0.4,1.4,0.8,2.1v30.4c-0.3,0.7-0.6,1.4-0.8,2.1c-1.2,8.3-1.8,16.7-3.6,24.8c-9.2,42.9-29.9,79.4-62.3,109.1
	c-29.7,27.5-67,45.4-107,51.3l-15.1,2.3h-32c-5.3-0.8-10.6-1.6-15.9-2.4c-28.5-4.6-55-14.5-79.2-30.5c1.1-0.1,2.2-0.1,3.2,0
	c5.5,1.5,10.9,3.2,16.5,4.6c15.7,4,31.8,5.9,48,5.8c4.9,0,9.8-0.2,14.7-0.8c10.5-1.3,21.1-2.3,31.4-4.6
	c45-10.3,85.1-35.6,113.9-71.6c11.2-14.2,20.5-29.8,27.7-46.4c9.5-21.5,15-44.6,16.4-68.1c2.2-34.8-4.4-69.5-19.4-101
	c-7.5-15.9-17.1-30.7-28.5-44.1C308.7,40,298.8,30.4,288,21.8C285.2,19.5,282.7,16.8,280,14.4z" />
	<path class="st0" style="fill:#F26986;" d="M280,14.4c2.6,2.5,5.1,5.1,8,7.4c10.8,8.6,20.7,18.2,29.7,28.8c11.4,13.4,21,28.2,28.5,44.1
	c14.9,31.5,21.6,66.2,19.4,101c-1.4,23.5-7,46.5-16.4,68.1c-7.2,16.6-16.6,32.2-27.8,46.4c-28.7,36.1-68.9,61.4-113.8,71.7
	c-10.3,2.3-20.9,3.3-31.4,4.6c-4.9,0.6-9.8,0.8-14.7,0.8c-16.2,0.1-32.3-1.8-48-5.8c-5.5-1.4-11-3.1-16.5-4.6
	c-1.1-0.1-2.2-0.1-3.2,0C81,368.6,69.3,359,58.8,348.2c-30.4-31-49.4-68-56.1-110.8C-5.8,183,5.6,132.6,37.3,87.3
	C63.3,49.9,98.4,24.2,141.7,10c24.9-8.1,51.1-11.3,77.2-9.4c20,1.4,39.1,5.8,58,12.3C277.9,13.3,279,13.8,280,14.4z M250.4,123.7
	c-18.7,0.9-32.7,10.7-45.5,24.8c-2.5-2.8-4.5-5.4-6.7-7.6c-25.1-25.5-66.1-23.1-88.4,3c-18.6,21.7-20.4,55.6-1.3,76.7
	c19.9,22,41.6,42.4,62.5,63.5c0.2,0.5,0.4,1,0.7,1.4c7.4,7.5,14.6,15.1,22.4,22.3c7.2,6.7,16.1,6.3,23.1-0.7
	c27.4-27.6,55.1-55,82.1-83c13.8-14.3,18.4-32.2,14.7-51.6c-4-20.6-16-35.4-35.1-44.1C270,124.2,260.4,122,250.4,123.7z" />
	<path class="st0" style="fill:#F26986;" d="M171,284.1c-20.9-21.1-42.6-41.5-62.5-63.5c-19.1-21.1-17.3-55,1.3-76.7c22.3-26,63.3-28.5,88.4-3
	c2.2,2.3,4.2,4.8,6.7,7.6c12.8-14.2,26.8-23.9,45.5-24.8c0.1,0.3,0.2,0.5,0.3,0.7c11.5,13,16.4,28.1,15,45.4
	c-1.2,13.9-6.2,26.1-15.9,36c-25,25.3-50.2,50.3-75.4,75.5C173.3,282.2,172.2,283.1,171,284.1z" />
	<path class="st0" style="fill:#F26986;" d="M171,284.1c1.1-1,2.3-1.8,3.3-2.9c25.1-25.1,50.4-50.2,75.4-75.5c9.8-9.9,14.8-22.1,15.9-36
	c1.4-17.3-3.4-32.4-15-45.4c-0.1-0.2-0.3-0.5-0.3-0.7c10.1-1.7,19.6,0.5,28.6,4.6C298,137,310,151.8,314,172.4
	c3.7,19.5-0.9,37.3-14.7,51.6c-27,28-54.7,55.4-82.1,83c-7,7-15.9,7.5-23.1,0.7c-7.7-7.2-14.9-14.9-22.4-22.3
	C171.4,285,171.2,284.5,171,284.1z" />
	<g>
		<path class="st1" style="fill:#FFFFFF;" d="M191.4,119.1c0,2.4-0.9,4.5-2.7,6.3c-1.8,1.8-3.9,2.7-6.3,2.7h-64c-2.4,0-4.5-0.9-6.3-2.7s-2.7-4-2.7-6.5
		c0-2.4,0.9-4.5,2.7-6.3c1.8-1.7,3.9-2.5,6.3-2.5h64c2.4,0,4.5,0.8,6.3,2.5C190.5,114.4,191.4,116.6,191.4,119.1z M297.1,110.1
		c2.4,0,4.5,0.8,6.3,2.5c1.8,1.8,2.7,3.9,2.7,6.3c0,2.6-0.9,4.7-2.7,6.5c-1.8,1.8-3.9,2.7-6.3,2.7h-81.5v38.3h52.9
		c7.1,0,13.1,2.6,18.2,7.7c5.1,5,7.7,11,7.7,18.2v60.6c0,7.1-2.6,13.1-7.7,18.2c-5.1,5.1-11.2,7.7-18.2,7.7h-18.7
		c-2.4,0-4.5-0.9-6.3-2.7c-1.8-1.8-2.7-4-2.7-6.5c0-2.4,0.9-4.5,2.7-6.3c1.8-1.7,3.9-2.5,6.3-2.5h18.7c5.3,0,7.9-2.6,7.9-7.9v-60.6
		c0-5.3-2.6-7.9-7.9-7.9H144.8c-5.3,0-7.9,2.6-7.9,7.9v76.4c0,2.4-0.9,4.5-2.7,6.3s-3.9,2.7-6.3,2.7c-2.4,0-4.5-0.9-6.3-2.7
		c-1.8-1.8-2.7-3.9-2.7-6.3v-76.4c0-7.2,2.6-13.3,7.7-18.2c5-5.1,11-7.7,18.2-7.7h52.7v-47.3c0-2.6,0.9-4.7,2.7-6.5
		c1.8-1.7,3.9-2.5,6.3-2.5H297.1z M206.5,189.2c2.4,0,4.5,0.8,6.3,2.5c1.8,1.8,2.7,4,2.7,6.5v96.4c0,2.4-0.9,4.5-2.7,6.3
		c-1.8,1.8-3.9,2.7-6.3,2.7c-2.4,0-4.5-0.9-6.3-2.7c-1.8-1.8-2.7-3.9-2.7-6.3v-96.4c0-2.6,0.9-4.7,2.7-6.5
		C202,190,204.1,189.2,206.5,189.2z" />
	</g>
</svg>