<svg id="图层_1" data-name="图层 1" xmlns="http://www.w3.org/2000/svg" viewBox="0 0 733.26 674.32"><defs><style>.cls-1{fill:#fe7e91;}.cls-2{fill:#fe5f7a;}.cls-3{fill:#fedadd;}</style></defs><title>heart1</title><path class="cls-1" d="M750,125.92V508.17a55.77,55.77,0,0,0-2.66,7.13c-9.46,41.47-43.31,71.45-85.75,73.13-38.33,1.51-76.75,1-115.12.66-14.61-.13-26,4.45-36.23,14.89-34.07,34.7-68.64,68.91-103.08,103.26a90.49,90.49,0,0,1-7.07,5.8,91.16,91.16,0,0,1-7.13-5.81Q331.49,645.82,270.09,584.3c-12.62-12.69-27.51-19-45.44-18.92-36.72.18-73.44-.17-110.16.11-43.42.32-73.78-33.64-73.5-73.36.91-132.57.37-265.15.22-397.73,0-4.79-1.83-9.58-2.8-14.36,19.88-23.31,45-34.71,75.78-34.68q265.06.27,530.12.16a176.82,176.82,0,0,1,25.51,1.71c37.43,5.5,61.83,27.08,75,62C746.89,114.67,748.32,120.35,750,125.92ZM407.9,491.1c12.11-8,24.57-15.47,36.27-24,37.72-27.56,72.32-58.37,98.8-97.38,16.43-24.21,27.35-50.52,29.36-79.89,1-15.17-1.6-30-6.88-44.44-18.29-50-68.37-75.28-117-68.71-21.39,2.89-39.77,12.23-56,26.29-7,6-10.88,6.15-17.55.2-23.76-21.19-51.75-29.45-83-27-14.19,1.1-28.05,4.41-40.14,12.71-8.16,5.65-17.39,10.22-24.29,17.13-33.21,33.24-40.75,72.83-26.59,117,11.19,34.93,32.83,63.32,57.88,89.2,33,34.12,71,62,111.58,86.54,6.72,4.07,14,5.53,21.17,2.31C397.32,498.43,402.47,494.46,407.9,491.1Z" transform="translate(-16.78 -45.36)"/><path class="cls-2" d="M400.13,713c-13,9.8-25.55,8.81-37.78-3.35q-45.62-45.44-91.08-91c-5.9-5.9-11.82-11.78-17.7-17.7a38.13,38.13,0,0,0-28-11.71c-40.52,0-81.05.84-121.54-.08-19.15-.43-36.5-8.46-51.52-20.63C33.08,552.77,21.94,532,17.26,507.75c-.93-4.84-.21-10-.21-15,0-119.95-.23-239.9.21-359.85.08-19.84,8.47-37.49,21.15-52.86,1,4.78,2.79,9.57,2.8,14.36C41.36,227,41.9,359.56,41,492.13c-.28,39.72,30.08,73.68,73.5,73.36,36.72-.28,73.44.07,110.16-.11,17.93-.09,32.82,6.23,45.44,18.92Q331.4,645.92,393,707.23A91.16,91.16,0,0,0,400.13,713Z" transform="translate(-16.78 -45.36)"/><path class="cls-3" d="M251.79,188.85c-2.19,3.31-4.12,6.84-6.62,9.91-28.13,34.58-31.36,72.91-16.65,113.59,10.86,30,29.47,55.26,51.15,78.36,36,38.33,77.9,69,122.71,96.08a55.38,55.38,0,0,1,5.52,4.31c-5.43,3.36-10.58,7.33-16.36,9.92-7.18,3.22-14.45,1.76-21.17-2.31-40.53-24.55-78.55-52.42-111.58-86.54-25.05-25.88-46.69-54.27-57.88-89.2-14.16-44.16-6.62-83.75,26.59-117C234.4,199.07,243.63,194.5,251.79,188.85Z" transform="translate(-16.78 -45.36)"/></svg>