<svg id="图层_1" data-name="图层 1" xmlns="http://www.w3.org/2000/svg" viewBox="0 0 360.2 409.36"><title>like</title><path d="M398.4,557.6c-5.47-1.43-11.13-.92-16.69-1.41-21.62-1.93-42.46-7.17-63-14.05-3.15-1-6.27-2.22-9.47-3.12-2.19-.61-2.81-1.79-2.81-4q.09-87.18,0-174.35c0-2.63,1.34-3.43,3.19-4.32a170.65,170.65,0,0,0,28.59-16.69c14.53-10.82,22.67-25.89,28.44-42.5a207.24,207.24,0,0,0,11.94-63.71c.14-6.45,3.77-11.21,9.72-11.86,21.39-2.36,41.88,2.77,55.08,24.22a42.55,42.55,0,0,1,6.75,23.12c-.37,21.61-2.38,43.06-8.63,63.9-.79,2.65-1.9,5.2-2.85,7.79,1.67,1.44,3.48.88,5.13.88q43.18.06,86.37,0c13.94,0,25.57,4.66,33.93,16.12a33.93,33.93,0,0,1,0,39.63c-2.09,2.86-2.4,4.61-.1,7.79,13.28,18.34,5.35,44.8-15.68,53.41-1.33.54-2.9.63-3.9,1.85,3.55,27.74.44,34-24.3,48.23,2,6.16,3.09,12.58,1.77,19.09a37.07,37.07,0,0,1-30.05,29c-1.31.23-2.67.2-3.82,1Z" transform="translate(-210.29 -148.24)"/><path d="M220,557.6c-7.48-2.7-9.74-8.13-9.71-15.87.2-61.56.11-123.13.11-184.69,0-1.47,0-2.94.07-4.4.35-6.26,4.66-10.9,11-11q24.58-.27,49.17,0c6.22.06,10.33,4.17,11.12,10.4a40.67,40.67,0,0,1,.27,5.18q0,92.14.09,184.3c0,7.82-2.25,13.51-10.08,16.07Z" transform="translate(-210.29 -148.24)"/><path d="M474.25,160.36a7.76,7.76,0,0,1-.88,4.1c-4.18,8.48-8.29,17-12.7,25.36a11.4,11.4,0,0,1-12.15,5.83,11.89,11.89,0,0,1-9.62-10,10.68,10.68,0,0,1,1-6.6c4-8.25,8-16.53,12.35-24.64a11.14,11.14,0,0,1,13.21-5.71A11.6,11.6,0,0,1,474.25,160.36Z" transform="translate(-210.29 -148.24)"/><path d="M377.66,195.82a11.08,11.08,0,0,1-9.44-6c-4.35-8.36-8.69-16.73-12.62-25.29a11.45,11.45,0,0,1,5.75-15.12,11.32,11.32,0,0,1,15.13,4.85c4.46,8.3,8.81,16.68,12.62,25.3C392.56,187.38,386.69,195.83,377.66,195.82Z" transform="translate(-210.29 -148.24)"/><path d="M330.23,243.86c-4.13,0-8.26.11-12.39,0a11.6,11.6,0,0,1-11.26-10.42c-.6-6,3.17-11.78,9.22-12.53a117.17,117.17,0,0,1,29.05,0c5.66.71,9.59,6.34,9.22,11.82A11.7,11.7,0,0,1,343,243.82C338.75,244,334.49,243.85,330.23,243.86Z" transform="translate(-210.29 -148.24)"/><path d="M498.6,243.86c-4.13,0-8.26.11-12.38,0A11.51,11.51,0,0,1,474.94,233c-.5-6,3.39-11.54,9.57-12.24a123.08,123.08,0,0,1,28.26,0c6.32.75,10.05,6.3,9.48,12.67A11.51,11.51,0,0,1,511,243.84C506.85,244,502.72,243.86,498.6,243.86Z" transform="translate(-210.29 -148.24)"/></svg>