<svg id="图层_1" data-name="图层 1" xmlns="http://www.w3.org/2000/svg" viewBox="0 0 292.56 384">
    <path class="cls-1" style="fill:#e0e5ef;" d="M384.73,442.52l.06-28.33-.08-.34a17.35,17.35,0,0,0,2.5-1.41C405.29,397.66,423.44,383,441.37,368c16.22-13.52,32.18-27.34,46-43.45,15-17.57,24.33-37.13,20.36-61-3.46-20.78-14-36.93-34.09-44.3-26-9.51-49.54-3.07-70.19,14.62-6.44,5.51-12.28,11.71-18.39,17.6-.1-.11-.21-.21-.32-.32l.05-30.7c.67-.55,1.38-1.06,2-1.66a90.93,90.93,0,0,1,39.53-22.5c5.1-1.39,10.3-2.41,15.46-3.59h19.5c5.14,1.25,10.41,2.13,15.4,3.82,30.08,10.2,47.1,31.62,52.88,62.43,5.1,27.14-2.85,51-19.19,72.35a222.24,222.24,0,0,1-22.23,25.14c-11.2,10.76-23.13,20.77-35,30.82-12.89,10.93-26.06,21.53-39.1,32.29-8.73,7.19-17.43,14.42-26.19,21.57A12.76,12.76,0,0,1,384.73,442.52Z" transform="translate(-238.5 -192.75)" />
    <path class="cls-2" style="fill:#e52f2f;" d="M384.75,464.28h11.19v44.27c3.2,1.31,4.58,0,5.81-2.49,6.92-14.07,14-28.08,21-42.11.6-1.2,1.26-2.37,2-3.79l20.17,10.08c-2,4-3.78,7.75-5.65,11.49-6,12-12.09,24-18,36.12a6.63,6.63,0,0,0-.06,5c6.1,13.22,12.41,26.35,18.65,39.51.64,1.33,1.21,2.69,1.82,4l-19.47,10.33h-.75c-6.62-14-13.3-28-19.8-42.09-1.2-2.61-2.64-3.65-5.83-2.53V576a54,54,0,0,0-6.36,0c-3.65.43-4.88-.64-4.86-4.63C384.82,535.71,384.75,500,384.75,464.28Z" transform="translate(-238.5 -192.75)" />
    <path class="cls-3" style="fill:#eb4c36;" d="M384.75,464.28c0,35.71.07,71.43-.1,107.14,0,4,1.21,5.06,4.86,4.63a54,54,0,0,1,6.36,0l.13.75H373.5V464.28Z" transform="translate(-238.5 -192.75)" />
    <path class="cls-4" style="fill:#f07e6e;" d="M238.5,576.75l.17-.81,67.23,0,.1.79Z" transform="translate(-238.5 -192.75)" />
    <path class="cls-5" style="fill:#ec6666;" d="M463.5,576.75l.1-.79,67.23,0,.17.81Z" transform="translate(-238.5 -192.75)" />
    <path class="cls-4" style="fill:#f07e6e;" d="M350.89,576l.11.79H328.5l.13-.8Z" transform="translate(-238.5 -192.75)" />
    <path class="cls-2" style="fill:#e52f2f;" d="M530.83,575.94l-67.23,0q-.06-39.35-.12-78.7c0-10.85,0-21.71,0-32.83h67.25v22.11H486.24V509.1h22v22.41H486.17v22.43h44.66Z" transform="translate(-238.5 -192.75)" />
    <path class="cls-3" style="fill:#eb4c36;" d="M305.9,576l-67.23,0q-.06-36.16-.13-72.32c0-13,0-25.95,0-39.19h22.37V554h45Z" transform="translate(-238.5 -192.75)" />
    <path class="cls-3" style="fill:#eb4c36;" d="M350.89,576H328.63l-.12-87.3c0-8,0-16,0-24.22h22.28c.07.82.2,1.65.2,2.49q0,53.58,0,107.17C351,574.71,350.93,575.33,350.89,576Z" transform="translate(-238.5 -192.75)" />
    <path class="cls-3" style="fill:#eb4c36;" d="M384.79,414.19c-26.86-22.39-53.92-44.53-80.47-67.27-13.2-11.3-25.21-23.92-34-39.17-10.09-17.52-12.13-36-5.66-55.17,8.59-25.49,33.18-40.35,59.89-37.07a75.69,75.69,0,0,1,46.05,22.7c4.38,4.43,8.94,8.7,13.41,13l.74.76q0,80.92-.05,161.84Z" transform="translate(-238.5 -192.75)" />
    <path class="cls-1" d="M384.76,252l-.74-.76c.23,0,.46,0,.68-.05s.22.21.32.32A1.77,1.77,0,0,1,384.76,252Z" transform="translate(-238.5 -192.75)" />
    <path class="cls-6" style="fill:#e52e2e;" d="M384.76,252a1.77,1.77,0,0,0,.26-.49c6.11-5.89,12-12.09,18.39-17.6,20.65-17.69,44.2-24.13,70.19-14.62,20.13,7.37,30.63,23.52,34.09,44.3,4,23.85-5.33,43.41-20.36,61-13.78,16.11-29.74,29.93-46,43.45-17.93,14.94-36.08,29.63-54.16,44.41a17.35,17.35,0,0,1-2.5,1.41Q384.74,332.92,384.76,252Z" transform="translate(-238.5 -192.75)" />
</svg>