<svg t="1629006053112" class="icon" viewBox="0 0 1024 1024" version="1.1" xmlns="http://www.w3.org/2000/svg" p-id="2056" width="200" height="200"><path d="M511.601664 66.49856c-119.99232 0-234.99776 50.00192-314.99264 130.00704-79.0016 79.99488-130.00704 195.00032-130.00704 314.99264 0 165.00736 89.00608 306.00192 220.0064 385.00352 64.99328 39.00416 144.9984 60.99968 224.99328 60.99968 124.99968 0 234.00448-50.00192 315.00288-131.00032 108.00128-108.00128 158.99648-274.00192 115.00544-432.9984C889.601024 203.49952 717.609984 66.49856 511.601664 66.49856L511.601664 66.49856zM787.600384 444.49792c-0.99328 6.00064-7.99744 15.0016-21.99552 26.0096l-115.99872 105.99424 4.00384 21.00224c-58.0096 0-104.00768-1.00352-137.00096-1.9968-22.00576-1.00352-32-5.00736-30.0032-12.00128 1.00352-3.00032 4.99712-7.00416 12.00128-11.008 47.99488-35.9936 88.99584-64 121.99936-82.9952 38.99392-21.99552 24.00256-25.99936-1.00352-27.99616-3.00032-1.00352-6.00064-1.00352-6.99392-1.00352-107.008-10.00448-249.99936 7.00416-255.00672 10.00448 95.00672 4.99712 156.0064 8.99072 182.99904 10.99776 13.0048 0.99328 20.00896 1.9968 20.00896 4.99712 0 1.00352-6.00064 4.00384-17.00864 10.99776l-3.9936 3.00032-35.00032 25.00608c-73.00096 50.9952-109.0048 79.0016-109.0048 84.992 80.9984 12.00128 167.00416 11.008 259.00032-3.9936l42.00448-6.00064-39.00416 19.99872 19.99872 112.00512c0 0 3.00032 9.99424 3.00032 19.99872 0 0 0 3.00032 0 7.99744 0 3.00032 0 4.99712-0.99328 6.00064-3.00032 3.00032-18.00192-3.00032-28.99968-10.00448l-8.00768-3.9936-131.00032-78.00832-137.99424 81.00864c0.99328-1.00352-22.99904 14.99136-28.99968 10.99776-2.00704 0 0-21.00224 1.9968-30.0032l0-3.00032 27.99616-156.99968-114.9952-103.99744-3.00032-1.9968c-4.00384-8.00768-19.99872-17.00864-19.99872-26.0096 1.00352-3.9936 19.99872-6.99392 33.00352-7.99744l10.99776-0.99328 146.9952-18.00192 64-129.00352c9.00096-21.00224 16.00512-32 19.99872-32 3.00032-1.00352 4.00384 1.00352 7.00416 4.99712l4.00384 6.00064c3.9936 6.00064 5.9904 14.00832 7.99744 17.00864l0.99328 0.99328 66.00704 132.00384 163.00032 19.99872 24.99584 4.99712L787.600384 444.49792z" p-id="2057"></path></svg>