<?xml version="1.0" encoding="utf-8"?>
<svg version="1.1" id="图层_1" xmlns="http://www.w3.org/2000/svg" xmlns:xlink="http://www.w3.org/1999/xlink" x="0px" y="0px" viewBox="0 0 768 768" style="enable-background:new 0 0 768 768;" xml:space="preserve">
	<g>
		<g>
			<path class="st0" style="fill:#2296F2;" d="M540.2,8.1c5.6,4.2,11.8,7.8,16.6,12.7c65.8,68,131.3,136.1,196.9,204.3c11.4,11.8,11.5,24.7,0.3,36.3
			C687.4,330.7,620.8,399.8,554.2,469c-6.9,7.2-14.7,11.5-24.9,9c-11.5-2.8-18.1-12-18.1-25.3c-0.1-30.1,0-60.3,0-90.4
			c0-2.6,0-5.3,0-8.3c-19.9,0-39.3-1.4-58.4,0.3c-66.1,5.6-122.3,32.7-167.9,81.1c-16.9,17.9-30.5,38.2-41.9,60.1
			c-8.4,16.1-27.7,19.3-39,6.4c-3.2-3.6-6-9-6-13.7c-0.6-40.4-2.2-80.9,8.3-120.5C234.3,262,299.8,190,401.7,151.2
			c32.6-12.4,66.7-17.2,101.5-17.7c2,0,3.9-0.1,5.9-0.2c0.4,0,0.8-0.4,2.1-1c0-2.2,0-4.9,0-7.5c0-28.2,0.4-56.4-0.2-84.5
			c-0.3-14.5,3.5-25.9,17.5-32.1C532.4,8.1,536.3,8.1,540.2,8.1z" />
			<path class="st1" style="fill:#617D8B;" d="M9.3,212.5c0.9-2.2,2-4.3,2.6-6.5c10.5-42.1,46.4-71.5,89.8-72.4c31.6-0.7,63.2-0.4,94.8-0.1
			c19,0.1,32.3,13.7,32.2,31.9c-0.1,17.9-13.9,30.9-33,31c-29.9,0.1-59.8,0-89.7,0c-20.8,0-33.7,12.7-33.7,33.2
			c0,145.1,0,290.2,0,435.3c0,20.7,12.7,33.3,33.6,33.3c186.8,0,373.5,0,560.3,0c20.7,0,33.2-12.7,33.3-33.6
			c0.1-81.9,0-163.7,0-245.6c0-19.8,12.7-33.9,30.7-34.4c17.7-0.4,31.9,13.2,32.2,31.1c0.2,16.4,0.1,32.8,0.1,49.3
			c0,66.2,0,132.3,0,198.5c0,56.9-40.8,97.6-97.9,97.6c-185.3,0-370.6,0-555.9,0c-50.4,0-85.3-27.3-97.7-76.4c-0.3-1.1-1-2-1.6-3
			C9.3,525.3,9.3,368.9,9.3,212.5z" />
		</g>
	</g>
</svg>