<svg t="1629006430133" class="icon" viewBox="0 0 1024 1024" version="1.1" xmlns="http://www.w3.org/2000/svg" p-id="2324" width="200" height="200"><path d="M418.99648 537.1136" p-id="2325"></path><path d="M512.00256 72.19328c-242.90304 0-439.81056 196.90752-439.81056 439.81056 0 242.89664 196.90752 439.80416 439.81056 439.80416 242.89664 0 439.80416-196.90752 439.80416-439.80416C951.80672 269.09952 754.90048 72.19328 512.00256 72.19328zM277.01888 282.19136c3.17952-5.58592 7.99232-8.50688 14.5216-8.50688l44.85376 0 169.69984 0c12.63232 0 18.82112 6.10176 18.82112 18.56128 0 105.42976 0.08576 210.85952 0.08576 316.29184 0 12.1152-6.1888 18.21696-18.38848 18.21696l-25.09184 0c-12.1152 0-18.38592-6.1888-18.38592-18.21696L463.13472 398.10688l0-51.38304c0-7.64672-3.43936-11.17312-11.00032-11.17312l-104.74368 0c-7.56096 0-12.54528 5.24416-12.54528 12.80384l0 257.00352c0 12.28672-4.38144 21.30944-16.66816 21.30944-8.3328 0-16.41216-1.2032-24.74624-0.60288-12.20096 0.85888-16.58496-7.1296-16.58496-16.5824-0.08704-0.08576 0-262.67264-0.08704-315.08736C276.75904 290.784 275.21408 285.45792 277.01888 282.19136zM524.99968 736.224c-0.08576 9.79328-6.87488 16.1536-16.672 15.29088-43.13472-3.69408-78.4512-22.33856-105.94688-55.67744-0.77312-0.85888-1.4592-1.80352-2.40512-2.8352-3.09376 3.52128-6.10176 7.1296-9.1968 10.4832-20.53504 22.08256-45.6256 36.43264-74.92608 43.73504-8.76416 2.14912-17.6128 3.43552-26.6368 4.03968-6.27072 0.4288-13.65888-5.67168-13.74592-12.11776-0.25856-12.45696-0.68992-25.00224 0-37.46176 0.51456-8.76544 4.72576-13.664 15.46368-16.41216 34.11456-8.76544 55.42144-26.29248 68.73984-59.2896 4.12544-12.45952 8.33408-25.25952 8.25088-37.29152-0.08704-72.94976 0-146.67136 0-219.71072 0-7.98848 3.26272-8.84864 11.34208-8.84864l41.75872 0c8.9344 0 10.39616 1.37344 10.39616 10.13888 0 73.20704 0.1728 146.5024-0.08576 219.71072-0.08704 20.19328 5.93024 38.23616 17.18528 54.6496 14.35008 20.88064 34.02496 34.37056 58.59968 40.72832 1.97632 0.51328 3.95392 1.03168 5.93024 1.71904 7.0464 2.32192 11.8592 8.8512 11.94496 16.3264C525.08288 714.31168 525.08288 725.30944 524.99968 736.224zM786.55616 352.39552c0 10.99648-5.67168 16.58112-16.58624 16.58112-40.98688 0-79.22304 0.1728-120.20992 0-3.60704 0-8.3328 4.81152-8.24704 8.25088 0.1728 34.45248 2.57664 65.47328 2.40768 99.93088 0 3.26272 2.31808 3.69408 5.83936 3.69408 37.20576-0.1728 74.67136 0 111.87712 0 11.8592 0 16.58496 4.72576 16.58496 16.5824 0 80.16896-0.17152 164.37632 0 244.54272 0 10.74176-5.58848 16.58496-16.58496 16.58496-63.24224-0.25856-127.42656 0-190.6688 0-11.9424 0-20.70656-8.76544-20.70656-20.70656L550.26176 497.43488c0-11.25504 7.81952-16.06784 18.9888-16.06784 3.17952 0 6.44224-0.17152 9.62304 0.08704 2.4896 0.17152 4.4672-2.14912 4.4672-4.72576-0.08704-17.87264 0-36.00256 0-53.87392 0.1728-15.296 0.1728-30.24896 0.1728-45.54368L583.5136 286.144c0-12.80128 7.73376-20.70656 20.70656-20.70656l20.7104 0c11.34208 0 19.07584 6.87488 19.07584 18.30272 0 6.78784 1.88928 12.20096 1.63072 18.9888-0.08576 3.008 1.37344 4.12544 4.1216 4.12544 40.98688-0.08576 79.22432 0 120.20992 0 11.94624 0 16.58624 8.7616 16.58624 20.70784L786.55488 352.39552z" p-id="2326"></path><path d="M612.47232 555.52l0 128.45824c0 7.73376 5.06752 12.11776 12.71424 12.11776l78.7968 0c8.41984 0 11.85664-3.52512 11.85664-12.032 0.08576-21.56544 0.08576-43.13088 0.08576-64.7872 0-21.6512 0.25856-42.10048 0.25856-63.7568 0-7.81568-4.55296-12.45952-12.45952-12.45952l-78.79296 0C617.88416 543.06048 612.47232 548.3904 612.47232 555.52z" p-id="2327"></path></svg>