<svg t="1629006023392" class="icon" viewBox="0 0 1024 1024" version="1.1" xmlns="http://www.w3.org/2000/svg" p-id="1789" width="200" height="200"><path d="M417.049881 613.387744l-0.021489-0.046049c-16.902989-7.107892-38.732178 0.197498-49.109537 16.549948-10.531878 16.395428-5.6067 35.930363 11.157119 43.583678 17.005319 7.739273 39.614269 0.38374 50.152287-16.436361C439.531941 640.061271 434.111483 620.63583 417.049881 613.387744" p-id="1790"></path><path d="M458.580805 596.091806l0.036839 0c-6.504141-2.564408-14.602594 0.53212-18.391901 6.93393-3.709489 6.38646-1.687434 13.714363 4.804427 16.377009 6.606471 2.714834 15.032383-0.436952 18.844202-6.934953C467.53679 605.917602 465.171927 598.53751 458.580805 596.091806" p-id="1791"></path><path d="M512.001535 67.237424c-245.596803 0-444.763087 199.088513-444.763087 444.758994 0 245.667411 199.091583 444.766157 444.763087 444.766157 245.677644 0 444.758994-199.097723 444.758994-444.766157C956.760529 266.326961 757.679179 67.237424 512.001535 67.237424M457.437771 781.169196l0.080841-0.024559c-136.649376 0-276.307276-66.226397-276.307276-175.133914 0-56.953187 36.097162-122.79175 98.146419-184.949477 82.943143-82.923701 179.73982-120.705227 216.099972-84.305165 16.048527 16.033178 17.62135 43.802666 7.266505 76.992612-5.392829 16.690141 15.667857 7.451723 15.667857 7.470143 67.026623-28.087737 125.569006-29.741401 146.939754 0.829902 11.420109 16.268538 10.302657 39.105685-0.189312 65.584783-4.869919 12.173263 1.482772 14.091964 10.767239 16.843637 37.799945 11.711751 79.852756 40.072711 79.852756 89.988614C755.762525 677.109085 636.648541 781.169196 457.437771 781.169196M704.984997 434.843147l-0.102331-0.00614c4.442177-13.680594 1.693573-29.239981-8.615223-40.64167-10.290377-11.392479-25.481373-15.730279-39.527288-12.760641-11.702541 2.548035-23.26796-4.97839-25.732083-16.661488-2.492776-11.730171 4.974296-23.274099 16.686048-25.812925 28.695581-6.13575 59.779561 2.763953 80.824898 26.115824 21.094455 23.37643 26.734924 55.179795 17.726751 83.100733-3.671626 11.444668-15.918567 17.658189-27.327419 13.992703C707.533032 458.461078 701.270392 446.229487 704.984997 434.843147zM831.445304 475.62501l-0.036839 0.163729c-4.299937 13.265132-18.547443 20.490704-31.772666 16.181557-13.299924-4.287657-20.528566-18.451253-16.237839-31.771643 13.132102-40.704091 4.808521-87.203171-25.874323-121.256789-30.753452-34.059758-76.151453-47.069062-117.984253-38.217455-13.642732 2.898006-27.054196-5.770429-29.957319-19.407021-2.898006-13.593613 5.75815-27.035777 19.407021-29.946063 58.882121-12.503791 122.721142 5.75815 165.981455 53.727722 43.270546 47.902034 54.975134 113.253503 36.474763 170.519822L831.445304 475.62501z" p-id="1792"></path><path d="M432.272599 482.958029l0.00614-0.064468c-109.052827 10.767239-191.742191 77.541105-184.658858 149.128608 7.086403 71.590573 101.182571 120.888399 210.214932 110.13958 109.052827-10.810217 191.742191-77.543151 184.640438-149.150097C635.474808 521.411868 541.303937 472.141672 432.272599 482.958029M527.994804 651.70139l-0.01842-0.024559c-22.234419 50.363088-86.2341 77.153271-140.568643 59.718163-52.38412-16.915268-74.624679-68.69666-51.635059-115.333887 22.506619-45.687597 81.182032-71.550664 133.075988-58.091104C522.493504 551.882887 549.906881 602.516129 527.994804 651.70139" p-id="1793"></path></svg>